<svg width="257" height="153" viewBox="0 0 257 153" fill="none" xmlns="http://www.w3.org/2000/svg">
<g filter="url(#filter0_d_13619_3830)">
<rect x="4.5" y="3.5" width="248" height="144" rx="9.5" stroke="#61C3F2" shape-rendering="crispEdges"/>
</g>
<rect width="3.07221" height="2.30227" rx="0.430476" transform="matrix(-1 -1.74846e-07 -1.74846e-07 1 76.4451 33.421)" fill="#A6A6A6" fill-opacity="0.5"/>
<rect width="2.15055" height="0.460455" rx="0.230228" transform="matrix(-1 -1.74846e-07 -1.74846e-07 1 75.9843 35.8768)" fill="#A6A6A6" fill-opacity="0.5"/>
<rect width="3.07221" height="2.30227" rx="0.430476" transform="matrix(-1 -1.74846e-07 -1.74846e-07 1 82.1002 33.421)" fill="#A6A6A6" fill-opacity="0.5"/>
<rect width="2.15055" height="0.460455" rx="0.230228" transform="matrix(-1 -1.74846e-07 -1.74846e-07 1 81.6393 35.8768)" fill="#A6A6A6" fill-opacity="0.5"/>
<rect width="3.07221" height="2.30227" rx="0.430476" transform="matrix(-1 -1.74846e-07 -1.74846e-07 1 93.4103 33.421)" fill="#61C3F2"/>
<rect width="2.15055" height="0.460455" rx="0.230228" transform="matrix(-1 -1.74846e-07 -1.74846e-07 1 92.9495 35.8768)" fill="#61C3F2"/>
<rect width="3.07221" height="2.30227" rx="0.430476" transform="matrix(-1 -1.74846e-07 -1.74846e-07 1 99.0654 33.421)" fill="#61C3F2"/>
<rect width="2.15055" height="0.460455" rx="0.230228" transform="matrix(-1 -1.74846e-07 -1.74846e-07 1 98.6045 35.8768)" fill="#61C3F2"/>
<rect width="3.07221" height="2.30227" rx="0.430476" transform="matrix(-1 -1.74846e-07 -1.74846e-07 1 104.72 33.421)" fill="#A6A6A6" fill-opacity="0.5"/>
<rect width="2.15055" height="0.460455" rx="0.230228" transform="matrix(-1 -1.74846e-07 -1.74846e-07 1 104.26 35.8768)" fill="#A6A6A6" fill-opacity="0.5"/>
<rect width="3.07221" height="2.30227" rx="0.430476" transform="matrix(-1 -1.74846e-07 -1.74846e-07 1 110.375 33.421)" fill="#A6A6A6" fill-opacity="0.5"/>
<rect width="2.15055" height="0.460455" rx="0.230228" transform="matrix(-1 -1.74846e-07 -1.74846e-07 1 109.915 35.8768)" fill="#A6A6A6" fill-opacity="0.5"/>
<rect width="3.07221" height="2.30227" rx="0.430476" transform="matrix(-1 -1.74846e-07 -1.74846e-07 1 116.031 33.421)" fill="#61C3F2"/>
<rect width="2.15055" height="0.460455" rx="0.230228" transform="matrix(-1 -1.74846e-07 -1.74846e-07 1 115.57 35.8768)" fill="#61C3F2"/>
<rect width="3.07221" height="2.30227" rx="0.430476" transform="matrix(-1 -1.74846e-07 -1.74846e-07 1 121.686 33.421)" fill="#61C3F2"/>
<rect width="2.15055" height="0.460455" rx="0.230228" transform="matrix(-1 -1.74846e-07 -1.74846e-07 1 121.225 35.8768)" fill="#61C3F2"/>
<rect width="3.07221" height="2.30227" rx="0.430476" transform="matrix(-1 -1.74846e-07 -1.74846e-07 1 127.341 33.421)" fill="#A6A6A6" fill-opacity="0.5"/>
<rect width="2.15055" height="0.460455" rx="0.230228" transform="matrix(-1 -1.74846e-07 -1.74846e-07 1 126.88 35.8768)" fill="#A6A6A6" fill-opacity="0.5"/>
<rect width="3.07221" height="2.30227" rx="0.430476" transform="matrix(-1 -1.74846e-07 -1.74846e-07 1 132.996 33.421)" fill="#A6A6A6" fill-opacity="0.5"/>
<rect width="2.15055" height="0.460455" rx="0.230228" transform="matrix(-1 -1.74846e-07 -1.74846e-07 1 132.535 35.8768)" fill="#A6A6A6" fill-opacity="0.5"/>
<rect width="3.07221" height="2.30227" rx="0.430476" transform="matrix(-1 -1.74846e-07 -1.74846e-07 1 138.651 33.421)" fill="#61C3F2"/>
<rect width="2.15055" height="0.460455" rx="0.230228" transform="matrix(-1 -1.74846e-07 -1.74846e-07 1 138.19 35.8768)" fill="#61C3F2"/>
<rect width="3.07221" height="2.30227" rx="0.430476" transform="matrix(-1 -1.74846e-07 -1.74846e-07 1 144.306 33.421)" fill="#61C3F2"/>
<rect width="2.15055" height="0.460455" rx="0.230228" transform="matrix(-1 -1.74846e-07 -1.74846e-07 1 143.845 35.8768)" fill="#61C3F2"/>
<rect width="3.07221" height="2.30227" rx="0.430476" transform="matrix(-1 -1.74846e-07 -1.74846e-07 1 149.961 33.421)" fill="#A6A6A6" fill-opacity="0.5"/>
<rect width="2.15055" height="0.460455" rx="0.230228" transform="matrix(-1 -1.74846e-07 -1.74846e-07 1 149.5 35.8768)" fill="#A6A6A6" fill-opacity="0.5"/>
<rect width="3.07221" height="2.30227" rx="0.430476" transform="matrix(-1 -1.74846e-07 -1.74846e-07 1 155.616 33.421)" fill="#A6A6A6" fill-opacity="0.5"/>
<rect width="2.15055" height="0.460455" rx="0.230228" transform="matrix(-1 -1.74846e-07 -1.74846e-07 1 155.155 35.8768)" fill="#A6A6A6" fill-opacity="0.5"/>
<rect width="3.07221" height="2.30227" rx="0.430476" transform="matrix(-1 -1.74846e-07 -1.74846e-07 1 161.271 33.421)" fill="#61C3F2"/>
<rect width="2.15055" height="0.460455" rx="0.230228" transform="matrix(-1 -1.74846e-07 -1.74846e-07 1 160.81 35.8768)" fill="#61C3F2"/>
<rect width="3.07221" height="2.30227" rx="0.430476" transform="matrix(-1 -1.74846e-07 -1.74846e-07 1 166.926 33.421)" fill="#61C3F2"/>
<rect width="2.15055" height="0.460455" rx="0.230228" transform="matrix(-1 -1.74846e-07 -1.74846e-07 1 166.465 35.8768)" fill="#61C3F2"/>
<rect width="3.07221" height="2.30227" rx="0.430476" transform="matrix(-1 -1.74846e-07 -1.74846e-07 1 178.236 33.421)" fill="#A6A6A6" fill-opacity="0.5"/>
<rect width="2.15055" height="0.460455" rx="0.230228" transform="matrix(-1 -1.74846e-07 -1.74846e-07 1 177.776 35.8768)" fill="#A6A6A6" fill-opacity="0.5"/>
<rect width="3.07221" height="2.30227" rx="0.430476" transform="matrix(-1 -1.74846e-07 -1.74846e-07 1 183.891 33.421)" fill="#A6A6A6" fill-opacity="0.5"/>
<rect width="2.15055" height="0.460455" rx="0.230228" transform="matrix(-1 -1.74846e-07 -1.74846e-07 1 183.431 35.8768)" fill="#A6A6A6" fill-opacity="0.5"/>
<rect width="3.07221" height="2.30227" rx="0.430476" transform="matrix(-1 -1.74846e-07 -1.74846e-07 1 65.1349 40.2115)" fill="#61C3F2"/>
<rect width="2.15055" height="0.460455" rx="0.230228" transform="matrix(-1 -1.74846e-07 -1.74846e-07 1 64.6741 42.6673)" fill="#61C3F2"/>
<rect width="3.07221" height="2.30227" rx="0.430476" transform="matrix(-1 -1.74846e-07 -1.74846e-07 1 70.79 40.2115)" fill="#A6A6A6" fill-opacity="0.5"/>
<rect width="2.15055" height="0.460455" rx="0.230228" transform="matrix(-1 -1.74846e-07 -1.74846e-07 1 70.3292 42.6673)" fill="#A6A6A6" fill-opacity="0.5"/>
<rect width="3.07221" height="2.30227" rx="0.430476" transform="matrix(-1 -1.74846e-07 -1.74846e-07 1 76.4451 40.2115)" fill="#61C3F2"/>
<rect width="2.15055" height="0.460455" rx="0.230228" transform="matrix(-1 -1.74846e-07 -1.74846e-07 1 75.9843 42.6673)" fill="#61C3F2"/>
<rect width="3.07221" height="2.30227" rx="0.430476" transform="matrix(-1 -1.74846e-07 -1.74846e-07 1 82.1002 40.2115)" fill="#A6A6A6" fill-opacity="0.5"/>
<rect width="2.15055" height="0.460455" rx="0.230228" transform="matrix(-1 -1.74846e-07 -1.74846e-07 1 81.6393 42.6673)" fill="#A6A6A6" fill-opacity="0.5"/>
<rect width="3.07221" height="2.30227" rx="0.430476" transform="matrix(-1 -1.74846e-07 -1.74846e-07 1 93.4103 40.2115)" fill="#A6A6A6" fill-opacity="0.5"/>
<rect width="2.15055" height="0.460455" rx="0.230228" transform="matrix(-1 -1.74846e-07 -1.74846e-07 1 92.9495 42.6673)" fill="#A6A6A6" fill-opacity="0.5"/>
<rect width="3.07221" height="2.30227" rx="0.430476" transform="matrix(-1 -1.74846e-07 -1.74846e-07 1 99.0654 40.2115)" fill="#A6A6A6" fill-opacity="0.5"/>
<rect width="2.15055" height="0.460455" rx="0.230228" transform="matrix(-1 -1.74846e-07 -1.74846e-07 1 98.6045 42.6673)" fill="#A6A6A6" fill-opacity="0.5"/>
<rect width="3.07221" height="2.30227" rx="0.430476" transform="matrix(-1 -1.74846e-07 -1.74846e-07 1 104.72 40.2115)" fill="#61C3F2"/>
<rect width="2.15055" height="0.460455" rx="0.230228" transform="matrix(-1 -1.74846e-07 -1.74846e-07 1 104.26 42.6673)" fill="#61C3F2"/>
<rect width="3.07221" height="2.30227" rx="0.430476" transform="matrix(-1 -1.74846e-07 -1.74846e-07 1 110.375 40.2115)" fill="#61C3F2"/>
<rect width="2.15055" height="0.460455" rx="0.230228" transform="matrix(-1 -1.74846e-07 -1.74846e-07 1 109.915 42.6673)" fill="#61C3F2"/>
<rect width="3.07221" height="2.30227" rx="0.430476" transform="matrix(-1 -1.74846e-07 -1.74846e-07 1 116.031 40.2115)" fill="#A6A6A6" fill-opacity="0.5"/>
<rect width="2.15055" height="0.460455" rx="0.230228" transform="matrix(-1 -1.74846e-07 -1.74846e-07 1 115.57 42.6673)" fill="#A6A6A6" fill-opacity="0.5"/>
<rect width="3.07221" height="2.30227" rx="0.430476" transform="matrix(-1 -1.74846e-07 -1.74846e-07 1 121.686 40.2115)" fill="#A6A6A6" fill-opacity="0.5"/>
<rect width="2.15055" height="0.460455" rx="0.230228" transform="matrix(-1 -1.74846e-07 -1.74846e-07 1 121.225 42.6673)" fill="#A6A6A6" fill-opacity="0.5"/>
<rect width="3.07221" height="2.30227" rx="0.430476" transform="matrix(-1 -1.74846e-07 -1.74846e-07 1 127.341 40.2115)" fill="#61C3F2"/>
<rect width="2.15055" height="0.460455" rx="0.230228" transform="matrix(-1 -1.74846e-07 -1.74846e-07 1 126.88 42.6673)" fill="#61C3F2"/>
<rect width="3.07221" height="2.30227" rx="0.430476" transform="matrix(-1 -1.74846e-07 -1.74846e-07 1 132.996 40.2115)" fill="#61C3F2"/>
<rect width="2.15055" height="0.460455" rx="0.230228" transform="matrix(-1 -1.74846e-07 -1.74846e-07 1 132.535 42.6673)" fill="#61C3F2"/>
<rect width="3.07221" height="2.30227" rx="0.430476" transform="matrix(-1 -1.74846e-07 -1.74846e-07 1 138.651 40.2115)" fill="#A6A6A6" fill-opacity="0.5"/>
<rect width="2.15055" height="0.460455" rx="0.230228" transform="matrix(-1 -1.74846e-07 -1.74846e-07 1 138.19 42.6673)" fill="#A6A6A6" fill-opacity="0.5"/>
<rect width="3.07221" height="2.30227" rx="0.430476" transform="matrix(-1 -1.74846e-07 -1.74846e-07 1 144.306 40.2115)" fill="#A6A6A6" fill-opacity="0.5"/>
<rect width="2.15055" height="0.460455" rx="0.230228" transform="matrix(-1 -1.74846e-07 -1.74846e-07 1 143.845 42.6673)" fill="#A6A6A6" fill-opacity="0.5"/>
<rect width="3.07221" height="2.30227" rx="0.430476" transform="matrix(-1 -1.74846e-07 -1.74846e-07 1 149.961 40.2115)" fill="#61C3F2"/>
<rect width="2.15055" height="0.460455" rx="0.230228" transform="matrix(-1 -1.74846e-07 -1.74846e-07 1 149.5 42.6673)" fill="#61C3F2"/>
<rect width="3.07221" height="2.30227" rx="0.430476" transform="matrix(-1 -1.74846e-07 -1.74846e-07 1 155.616 40.2115)" fill="#61C3F2"/>
<rect width="2.15055" height="0.460455" rx="0.230228" transform="matrix(-1 -1.74846e-07 -1.74846e-07 1 155.155 42.6673)" fill="#61C3F2"/>
<rect width="3.07221" height="2.30227" rx="0.430476" transform="matrix(-1 -1.74846e-07 -1.74846e-07 1 161.271 40.2115)" fill="#A6A6A6" fill-opacity="0.5"/>
<rect width="2.15055" height="0.460455" rx="0.230228" transform="matrix(-1 -1.74846e-07 -1.74846e-07 1 160.81 42.6673)" fill="#A6A6A6" fill-opacity="0.5"/>
<rect width="3.07221" height="2.30227" rx="0.430476" transform="matrix(-1 -1.74846e-07 -1.74846e-07 1 166.926 40.2115)" fill="#A6A6A6" fill-opacity="0.5"/>
<rect width="2.15055" height="0.460455" rx="0.230228" transform="matrix(-1 -1.74846e-07 -1.74846e-07 1 166.465 42.6673)" fill="#A6A6A6" fill-opacity="0.5"/>
<rect width="3.07221" height="2.30227" rx="0.430476" transform="matrix(-1 -1.74846e-07 -1.74846e-07 1 178.236 40.2115)" fill="#A6A6A6" fill-opacity="0.5"/>
<rect width="2.15055" height="0.460455" rx="0.230228" transform="matrix(-1 -1.74846e-07 -1.74846e-07 1 177.776 42.6673)" fill="#A6A6A6" fill-opacity="0.5"/>
<rect width="3.07221" height="2.30227" rx="0.430476" transform="matrix(-1 -1.74846e-07 -1.74846e-07 1 183.891 40.2115)" fill="#61C3F2"/>
<rect width="2.15055" height="0.460455" rx="0.230228" transform="matrix(-1 -1.74846e-07 -1.74846e-07 1 183.431 42.6673)" fill="#61C3F2"/>
<rect width="3.07221" height="2.30227" rx="0.430476" transform="matrix(-1 -1.74846e-07 -1.74846e-07 1 189.546 40.2115)" fill="#A6A6A6" fill-opacity="0.5"/>
<rect width="2.15055" height="0.460455" rx="0.230228" transform="matrix(-1 -1.74846e-07 -1.74846e-07 1 189.086 42.6673)" fill="#A6A6A6" fill-opacity="0.5"/>
<rect width="3.07221" height="2.30227" rx="0.430476" transform="matrix(-1 -1.74846e-07 -1.74846e-07 1 195.202 40.2115)" fill="#61C3F2"/>
<rect width="2.15055" height="0.460455" rx="0.230228" transform="matrix(-1 -1.74846e-07 -1.74846e-07 1 194.741 42.6673)" fill="#61C3F2"/>
<rect width="3.07221" height="2.30227" rx="0.430476" transform="matrix(-1 -1.74846e-07 -1.74846e-07 1 65.1349 47.002)" fill="#A6A6A6" fill-opacity="0.5"/>
<rect width="2.15055" height="0.460455" rx="0.230228" transform="matrix(-1 -1.74846e-07 -1.74846e-07 1 64.6741 49.4578)" fill="#A6A6A6" fill-opacity="0.5"/>
<rect width="3.07221" height="2.30227" rx="0.430476" transform="matrix(-1 -1.74846e-07 -1.74846e-07 1 70.79 47.002)" fill="#61C3F2"/>
<rect width="2.15055" height="0.460455" rx="0.230228" transform="matrix(-1 -1.74846e-07 -1.74846e-07 1 70.3292 49.4578)" fill="#61C3F2"/>
<rect width="3.07221" height="2.30227" rx="0.430476" transform="matrix(-1 -1.74846e-07 -1.74846e-07 1 76.4451 47.002)" fill="#A6A6A6" fill-opacity="0.5"/>
<rect width="2.15055" height="0.460455" rx="0.230228" transform="matrix(-1 -1.74846e-07 -1.74846e-07 1 75.9843 49.4578)" fill="#A6A6A6" fill-opacity="0.5"/>
<rect width="3.07221" height="2.30227" rx="0.430476" transform="matrix(-1 -1.74846e-07 -1.74846e-07 1 82.1002 47.002)" fill="#A6A6A6" fill-opacity="0.5"/>
<rect width="2.15055" height="0.460455" rx="0.230228" transform="matrix(-1 -1.74846e-07 -1.74846e-07 1 81.6393 49.4578)" fill="#A6A6A6" fill-opacity="0.5"/>
<rect width="3.07221" height="2.30227" rx="0.430476" transform="matrix(-1 -1.74846e-07 -1.74846e-07 1 93.4103 47.002)" fill="#15D2BC"/>
<rect width="2.15055" height="0.460455" rx="0.230228" transform="matrix(-1 -1.74846e-07 -1.74846e-07 1 92.9495 49.4578)" fill="#15D2BC"/>
<rect width="3.07221" height="2.30227" rx="0.430476" transform="matrix(-1 -1.74846e-07 -1.74846e-07 1 99.0654 47.002)" fill="#15D2BC"/>
<rect width="2.15055" height="0.460455" rx="0.230228" transform="matrix(-1 -1.74846e-07 -1.74846e-07 1 98.6045 49.4578)" fill="#15D2BC"/>
<rect width="3.07221" height="2.30227" rx="0.430476" transform="matrix(-1 -1.74846e-07 -1.74846e-07 1 104.72 47.002)" fill="#A6A6A6" fill-opacity="0.5"/>
<rect width="2.15055" height="0.460455" rx="0.230228" transform="matrix(-1 -1.74846e-07 -1.74846e-07 1 104.26 49.4578)" fill="#A6A6A6" fill-opacity="0.5"/>
<rect width="3.07221" height="2.30227" rx="0.430476" transform="matrix(-1 -1.74846e-07 -1.74846e-07 1 110.375 47.002)" fill="#A6A6A6" fill-opacity="0.5"/>
<rect width="2.15055" height="0.460455" rx="0.230228" transform="matrix(-1 -1.74846e-07 -1.74846e-07 1 109.915 49.4578)" fill="#A6A6A6" fill-opacity="0.5"/>
<rect width="3.07221" height="2.30227" rx="0.430476" transform="matrix(-1 -1.74846e-07 -1.74846e-07 1 116.031 47.002)" fill="#61C3F2"/>
<rect width="2.15055" height="0.460455" rx="0.230228" transform="matrix(-1 -1.74846e-07 -1.74846e-07 1 115.57 49.4578)" fill="#61C3F2"/>
<rect width="3.07221" height="2.30227" rx="0.430476" transform="matrix(-1 -1.74846e-07 -1.74846e-07 1 121.686 47.002)" fill="#61C3F2"/>
<rect width="2.15055" height="0.460455" rx="0.230228" transform="matrix(-1 -1.74846e-07 -1.74846e-07 1 121.225 49.4578)" fill="#61C3F2"/>
<rect width="3.07221" height="2.30227" rx="0.430476" transform="matrix(-1 -1.74846e-07 -1.74846e-07 1 127.341 47.002)" fill="#A6A6A6" fill-opacity="0.5"/>
<rect width="2.15055" height="0.460455" rx="0.230228" transform="matrix(-1 -1.74846e-07 -1.74846e-07 1 126.88 49.4578)" fill="#A6A6A6" fill-opacity="0.5"/>
<rect width="3.07221" height="2.30227" rx="0.430476" transform="matrix(-1 -1.74846e-07 -1.74846e-07 1 132.996 47.002)" fill="#A6A6A6" fill-opacity="0.5"/>
<rect width="2.15055" height="0.460455" rx="0.230228" transform="matrix(-1 -1.74846e-07 -1.74846e-07 1 132.535 49.4578)" fill="#A6A6A6" fill-opacity="0.5"/>
<rect width="3.07221" height="2.30227" rx="0.430476" transform="matrix(-1 -1.74846e-07 -1.74846e-07 1 138.651 47.002)" fill="#61C3F2"/>
<rect width="2.15055" height="0.460455" rx="0.230228" transform="matrix(-1 -1.74846e-07 -1.74846e-07 1 138.19 49.4578)" fill="#61C3F2"/>
<rect width="3.07221" height="2.30227" rx="0.430476" transform="matrix(-1 -1.74846e-07 -1.74846e-07 1 144.306 47.002)" fill="#61C3F2"/>
<rect width="2.15055" height="0.460455" rx="0.230228" transform="matrix(-1 -1.74846e-07 -1.74846e-07 1 143.845 49.4578)" fill="#61C3F2"/>
<rect width="3.07221" height="2.30227" rx="0.430476" transform="matrix(-1 -1.74846e-07 -1.74846e-07 1 149.961 47.002)" fill="#A6A6A6" fill-opacity="0.5"/>
<rect width="2.15055" height="0.460455" rx="0.230228" transform="matrix(-1 -1.74846e-07 -1.74846e-07 1 149.5 49.4578)" fill="#A6A6A6" fill-opacity="0.5"/>
<rect width="3.07221" height="2.30227" rx="0.430476" transform="matrix(-1 -1.74846e-07 -1.74846e-07 1 155.616 47.002)" fill="#A6A6A6" fill-opacity="0.5"/>
<rect width="2.15055" height="0.460455" rx="0.230228" transform="matrix(-1 -1.74846e-07 -1.74846e-07 1 155.155 49.4578)" fill="#A6A6A6" fill-opacity="0.5"/>
<rect width="3.07221" height="2.30227" rx="0.430476" transform="matrix(-1 -1.74846e-07 -1.74846e-07 1 161.271 47.002)" fill="#15D2BC"/>
<rect width="2.15055" height="0.460455" rx="0.230228" transform="matrix(-1 -1.74846e-07 -1.74846e-07 1 160.81 49.4578)" fill="#15D2BC"/>
<rect width="3.07221" height="2.30227" rx="0.430476" transform="matrix(-1 -1.74846e-07 -1.74846e-07 1 166.926 47.002)" fill="#15D2BC"/>
<rect width="2.15055" height="0.460455" rx="0.230228" transform="matrix(-1 -1.74846e-07 -1.74846e-07 1 166.465 49.4578)" fill="#15D2BC"/>
<rect width="3.07221" height="2.30227" rx="0.430476" transform="matrix(-1 -1.74846e-07 -1.74846e-07 1 178.236 47.002)" fill="#A6A6A6" fill-opacity="0.5"/>
<rect width="2.15055" height="0.460455" rx="0.230228" transform="matrix(-1 -1.74846e-07 -1.74846e-07 1 177.776 49.4578)" fill="#A6A6A6" fill-opacity="0.5"/>
<rect width="3.07221" height="2.30227" rx="0.430476" transform="matrix(-1 -1.74846e-07 -1.74846e-07 1 183.891 47.002)" fill="#A6A6A6" fill-opacity="0.5"/>
<rect width="2.15055" height="0.460455" rx="0.230228" transform="matrix(-1 -1.74846e-07 -1.74846e-07 1 183.431 49.4578)" fill="#A6A6A6" fill-opacity="0.5"/>
<rect width="3.07221" height="2.30227" rx="0.430476" transform="matrix(-1 -1.74846e-07 -1.74846e-07 1 189.546 47.002)" fill="#61C3F2"/>
<rect width="2.15055" height="0.460455" rx="0.230228" transform="matrix(-1 -1.74846e-07 -1.74846e-07 1 189.086 49.4578)" fill="#61C3F2"/>
<rect width="3.07221" height="2.30227" rx="0.430476" transform="matrix(-1 -1.74846e-07 -1.74846e-07 1 195.202 47.002)" fill="#A6A6A6" fill-opacity="0.5"/>
<rect width="2.15055" height="0.460455" rx="0.230228" transform="matrix(-1 -1.74846e-07 -1.74846e-07 1 194.741 49.4578)" fill="#A6A6A6" fill-opacity="0.5"/>
<rect width="3.07221" height="2.30227" rx="0.430476" transform="matrix(-1 -1.74846e-07 -1.74846e-07 1 65.1349 53.7925)" fill="#A6A6A6" fill-opacity="0.5"/>
<rect width="2.15055" height="0.460455" rx="0.230228" transform="matrix(-1 -1.74846e-07 -1.74846e-07 1 64.6741 56.2483)" fill="#A6A6A6" fill-opacity="0.5"/>
<rect width="3.07221" height="2.30227" rx="0.430476" transform="matrix(-1 -1.74846e-07 -1.74846e-07 1 70.79 53.7925)" fill="#A6A6A6" fill-opacity="0.5"/>
<rect width="2.15055" height="0.460455" rx="0.230228" transform="matrix(-1 -1.74846e-07 -1.74846e-07 1 70.3292 56.2483)" fill="#A6A6A6" fill-opacity="0.5"/>
<rect width="3.07221" height="2.30227" rx="0.430476" transform="matrix(-1 -1.74846e-07 -1.74846e-07 1 76.4451 53.7925)" fill="#61C3F2"/>
<rect width="2.15055" height="0.460455" rx="0.230228" transform="matrix(-1 -1.74846e-07 -1.74846e-07 1 75.9843 56.2483)" fill="#61C3F2"/>
<rect width="3.07221" height="2.30227" rx="0.430476" transform="matrix(-1 -1.74846e-07 -1.74846e-07 1 82.1002 53.7925)" fill="#A6A6A6" fill-opacity="0.5"/>
<rect width="2.15055" height="0.460455" rx="0.230228" transform="matrix(-1 -1.74846e-07 -1.74846e-07 1 81.6393 56.2483)" fill="#A6A6A6" fill-opacity="0.5"/>
<rect width="3.07221" height="2.30227" rx="0.430476" transform="matrix(-1 -1.74846e-07 -1.74846e-07 1 93.4103 53.7925)" fill="#A6A6A6" fill-opacity="0.5"/>
<rect width="2.15055" height="0.460455" rx="0.230228" transform="matrix(-1 -1.74846e-07 -1.74846e-07 1 92.9495 56.2483)" fill="#A6A6A6" fill-opacity="0.5"/>
<rect width="3.07221" height="2.30227" rx="0.430476" transform="matrix(-1 -1.74846e-07 -1.74846e-07 1 99.0654 53.7925)" fill="#A6A6A6" fill-opacity="0.5"/>
<rect width="2.15055" height="0.460455" rx="0.230228" transform="matrix(-1 -1.74846e-07 -1.74846e-07 1 98.6045 56.2483)" fill="#A6A6A6" fill-opacity="0.5"/>
<rect width="3.07221" height="2.30227" rx="0.430476" transform="matrix(-1 -1.74846e-07 -1.74846e-07 1 104.72 53.7925)" fill="#61C3F2"/>
<rect width="2.15055" height="0.460455" rx="0.230228" transform="matrix(-1 -1.74846e-07 -1.74846e-07 1 104.26 56.2483)" fill="#61C3F2"/>
<rect width="3.07221" height="2.30227" rx="0.430476" transform="matrix(-1 -1.74846e-07 -1.74846e-07 1 110.375 53.7925)" fill="#61C3F2"/>
<rect width="2.15055" height="0.460455" rx="0.230228" transform="matrix(-1 -1.74846e-07 -1.74846e-07 1 109.915 56.2483)" fill="#61C3F2"/>
<rect width="3.07221" height="2.30227" rx="0.430476" transform="matrix(-1 -1.74846e-07 -1.74846e-07 1 116.031 53.7925)" fill="#A6A6A6" fill-opacity="0.5"/>
<rect width="2.15055" height="0.460455" rx="0.230228" transform="matrix(-1 -1.74846e-07 -1.74846e-07 1 115.57 56.2483)" fill="#A6A6A6" fill-opacity="0.5"/>
<rect width="3.07221" height="2.30227" rx="0.430476" transform="matrix(-1 -1.74846e-07 -1.74846e-07 1 121.686 53.7925)" fill="#A6A6A6" fill-opacity="0.5"/>
<rect width="2.15055" height="0.460455" rx="0.230228" transform="matrix(-1 -1.74846e-07 -1.74846e-07 1 121.225 56.2483)" fill="#A6A6A6" fill-opacity="0.5"/>
<rect width="3.07221" height="2.30227" rx="0.430476" transform="matrix(-1 -1.74846e-07 -1.74846e-07 1 127.341 53.7925)" fill="#61C3F2"/>
<rect width="2.15055" height="0.460455" rx="0.230228" transform="matrix(-1 -1.74846e-07 -1.74846e-07 1 126.88 56.2483)" fill="#61C3F2"/>
<rect width="3.07221" height="2.30227" rx="0.430476" transform="matrix(-1 -1.74846e-07 -1.74846e-07 1 132.996 53.7925)" fill="#61C3F2"/>
<rect width="2.15055" height="0.460455" rx="0.230228" transform="matrix(-1 -1.74846e-07 -1.74846e-07 1 132.535 56.2483)" fill="#61C3F2"/>
<rect width="3.07221" height="2.30227" rx="0.430476" transform="matrix(-1 -1.74846e-07 -1.74846e-07 1 138.651 53.7925)" fill="#A6A6A6" fill-opacity="0.5"/>
<rect width="2.15055" height="0.460455" rx="0.230228" transform="matrix(-1 -1.74846e-07 -1.74846e-07 1 138.19 56.2483)" fill="#A6A6A6" fill-opacity="0.5"/>
<rect width="3.07221" height="2.30227" rx="0.430476" transform="matrix(-1 -1.74846e-07 -1.74846e-07 1 144.306 53.7925)" fill="#A6A6A6" fill-opacity="0.5"/>
<rect width="2.15055" height="0.460455" rx="0.230228" transform="matrix(-1 -1.74846e-07 -1.74846e-07 1 143.845 56.2483)" fill="#A6A6A6" fill-opacity="0.5"/>
<rect width="3.07221" height="2.30227" rx="0.430476" transform="matrix(-1 -1.74846e-07 -1.74846e-07 1 149.961 53.7925)" fill="#61C3F2"/>
<rect width="2.15055" height="0.460455" rx="0.230228" transform="matrix(-1 -1.74846e-07 -1.74846e-07 1 149.5 56.2483)" fill="#61C3F2"/>
<rect width="3.07221" height="2.30227" rx="0.430476" transform="matrix(-1 -1.74846e-07 -1.74846e-07 1 155.616 53.7925)" fill="#61C3F2"/>
<rect width="2.15055" height="0.460455" rx="0.230228" transform="matrix(-1 -1.74846e-07 -1.74846e-07 1 155.155 56.2483)" fill="#61C3F2"/>
<rect width="3.07221" height="2.30227" rx="0.430476" transform="matrix(-1 -1.74846e-07 -1.74846e-07 1 161.271 53.7925)" fill="#A6A6A6" fill-opacity="0.5"/>
<rect width="2.15055" height="0.460455" rx="0.230228" transform="matrix(-1 -1.74846e-07 -1.74846e-07 1 160.81 56.2483)" fill="#A6A6A6" fill-opacity="0.5"/>
<rect width="3.07221" height="2.30227" rx="0.430476" transform="matrix(-1 -1.74846e-07 -1.74846e-07 1 166.926 53.7925)" fill="#A6A6A6" fill-opacity="0.5"/>
<rect width="2.15055" height="0.460455" rx="0.230228" transform="matrix(-1 -1.74846e-07 -1.74846e-07 1 166.465 56.2483)" fill="#A6A6A6" fill-opacity="0.5"/>
<rect width="3.07221" height="2.30227" rx="0.430476" transform="matrix(-1 -1.74846e-07 -1.74846e-07 1 178.236 53.7925)" fill="#A6A6A6" fill-opacity="0.5"/>
<rect width="2.15055" height="0.460455" rx="0.230228" transform="matrix(-1 -1.74846e-07 -1.74846e-07 1 177.776 56.2483)" fill="#A6A6A6" fill-opacity="0.5"/>
<rect width="3.07221" height="2.30227" rx="0.430476" transform="matrix(-1 -1.74846e-07 -1.74846e-07 1 183.891 53.7925)" fill="#61C3F2"/>
<rect width="2.15055" height="0.460455" rx="0.230228" transform="matrix(-1 -1.74846e-07 -1.74846e-07 1 183.431 56.2483)" fill="#61C3F2"/>
<rect width="3.07221" height="2.30227" rx="0.430476" transform="matrix(-1 -1.74846e-07 -1.74846e-07 1 189.546 53.7925)" fill="#A6A6A6" fill-opacity="0.5"/>
<rect width="2.15055" height="0.460455" rx="0.230228" transform="matrix(-1 -1.74846e-07 -1.74846e-07 1 189.086 56.2483)" fill="#A6A6A6" fill-opacity="0.5"/>
<rect width="3.07221" height="2.30227" rx="0.430476" transform="matrix(-1 -1.74846e-07 -1.74846e-07 1 195.202 53.7925)" fill="#A6A6A6" fill-opacity="0.5"/>
<rect width="2.15055" height="0.460455" rx="0.230228" transform="matrix(-1 -1.74846e-07 -1.74846e-07 1 194.741 56.2483)" fill="#A6A6A6" fill-opacity="0.5"/>
<rect width="3.07221" height="2.30227" rx="0.430476" transform="matrix(-1 -1.74846e-07 -1.74846e-07 1 59.4799 60.583)" fill="#61C3F2"/>
<rect width="2.15055" height="0.460455" rx="0.230228" transform="matrix(-1 -1.74846e-07 -1.74846e-07 1 59.019 63.0388)" fill="#61C3F2"/>
<rect width="3.07221" height="2.30227" rx="0.430476" transform="matrix(-1 -1.74846e-07 -1.74846e-07 1 65.1349 60.583)" fill="#61C3F2"/>
<rect width="2.15055" height="0.460455" rx="0.230228" transform="matrix(-1 -1.74846e-07 -1.74846e-07 1 64.6741 63.0388)" fill="#61C3F2"/>
<rect width="3.07221" height="2.30227" rx="0.430476" transform="matrix(-1 -1.74846e-07 -1.74846e-07 1 70.79 60.583)" fill="#A6A6A6" fill-opacity="0.5"/>
<rect width="2.15055" height="0.460455" rx="0.230228" transform="matrix(-1 -1.74846e-07 -1.74846e-07 1 70.3292 63.0388)" fill="#A6A6A6" fill-opacity="0.5"/>
<rect width="3.07221" height="2.30227" rx="0.430476" transform="matrix(-1 -1.74846e-07 -1.74846e-07 1 76.4451 60.583)" fill="#A6A6A6" fill-opacity="0.5"/>
<rect width="2.15055" height="0.460455" rx="0.230228" transform="matrix(-1 -1.74846e-07 -1.74846e-07 1 75.9843 63.0388)" fill="#A6A6A6" fill-opacity="0.5"/>
<rect width="3.07221" height="2.30227" rx="0.430476" transform="matrix(-1 -1.74846e-07 -1.74846e-07 1 82.1002 60.583)" fill="#A6A6A6" fill-opacity="0.5"/>
<rect width="2.15055" height="0.460455" rx="0.230228" transform="matrix(-1 -1.74846e-07 -1.74846e-07 1 81.6393 63.0388)" fill="#A6A6A6" fill-opacity="0.5"/>
<rect width="3.07221" height="2.30227" rx="0.430476" transform="matrix(-1 -1.74846e-07 -1.74846e-07 1 93.4103 60.583)" fill="#E26CA5"/>
<rect width="2.15055" height="0.460455" rx="0.230228" transform="matrix(-1 -1.74846e-07 -1.74846e-07 1 92.9495 63.0388)" fill="#E26CA5"/>
<rect width="3.07221" height="2.30227" rx="0.430476" transform="matrix(-1 -1.74846e-07 -1.74846e-07 1 99.0654 60.583)" fill="#E26CA5"/>
<rect width="2.15055" height="0.460455" rx="0.230228" transform="matrix(-1 -1.74846e-07 -1.74846e-07 1 98.6045 63.0388)" fill="#E26CA5"/>
<rect width="3.07221" height="2.30227" rx="0.430476" transform="matrix(-1 -1.74846e-07 -1.74846e-07 1 104.72 60.583)" fill="#A6A6A6" fill-opacity="0.5"/>
<rect width="2.15055" height="0.460455" rx="0.230228" transform="matrix(-1 -1.74846e-07 -1.74846e-07 1 104.26 63.0388)" fill="#A6A6A6" fill-opacity="0.5"/>
<rect width="3.07221" height="2.30227" rx="0.430476" transform="matrix(-1 -1.74846e-07 -1.74846e-07 1 110.375 60.583)" fill="#A6A6A6" fill-opacity="0.5"/>
<rect width="2.15055" height="0.460455" rx="0.230228" transform="matrix(-1 -1.74846e-07 -1.74846e-07 1 109.915 63.0388)" fill="#A6A6A6" fill-opacity="0.5"/>
<rect width="3.07221" height="2.30227" rx="0.430476" transform="matrix(-1 -1.74846e-07 -1.74846e-07 1 116.031 60.583)" fill="#61C3F2"/>
<rect width="2.15055" height="0.460455" rx="0.230228" transform="matrix(-1 -1.74846e-07 -1.74846e-07 1 115.57 63.0388)" fill="#61C3F2"/>
<rect width="3.07221" height="2.30227" rx="0.430476" transform="matrix(-1 -1.74846e-07 -1.74846e-07 1 121.686 60.583)" fill="#61C3F2"/>
<rect width="2.15055" height="0.460455" rx="0.230228" transform="matrix(-1 -1.74846e-07 -1.74846e-07 1 121.225 63.0388)" fill="#61C3F2"/>
<rect width="3.07221" height="2.30227" rx="0.430476" transform="matrix(-1 -1.74846e-07 -1.74846e-07 1 127.341 60.583)" fill="#A6A6A6" fill-opacity="0.5"/>
<rect width="2.15055" height="0.460455" rx="0.230228" transform="matrix(-1 -1.74846e-07 -1.74846e-07 1 126.88 63.0388)" fill="#A6A6A6" fill-opacity="0.5"/>
<rect width="3.07221" height="2.30227" rx="0.430476" transform="matrix(-1 -1.74846e-07 -1.74846e-07 1 132.996 60.583)" fill="#A6A6A6" fill-opacity="0.5"/>
<rect width="2.15055" height="0.460455" rx="0.230228" transform="matrix(-1 -1.74846e-07 -1.74846e-07 1 132.535 63.0388)" fill="#A6A6A6" fill-opacity="0.5"/>
<rect width="3.07221" height="2.30227" rx="0.430476" transform="matrix(-1 -1.74846e-07 -1.74846e-07 1 138.651 60.583)" fill="#61C3F2"/>
<rect width="2.15055" height="0.460455" rx="0.230228" transform="matrix(-1 -1.74846e-07 -1.74846e-07 1 138.19 63.0388)" fill="#61C3F2"/>
<rect width="3.07221" height="2.30227" rx="0.430476" transform="matrix(-1 -1.74846e-07 -1.74846e-07 1 144.306 60.583)" fill="#61C3F2"/>
<rect width="2.15055" height="0.460455" rx="0.230228" transform="matrix(-1 -1.74846e-07 -1.74846e-07 1 143.845 63.0388)" fill="#61C3F2"/>
<rect width="3.07221" height="2.30227" rx="0.430476" transform="matrix(-1 -1.74846e-07 -1.74846e-07 1 149.961 60.583)" fill="#A6A6A6" fill-opacity="0.5"/>
<rect width="2.15055" height="0.460455" rx="0.230228" transform="matrix(-1 -1.74846e-07 -1.74846e-07 1 149.5 63.0388)" fill="#A6A6A6" fill-opacity="0.5"/>
<rect width="3.07221" height="2.30227" rx="0.430476" transform="matrix(-1 -1.74846e-07 -1.74846e-07 1 155.616 60.583)" fill="#A6A6A6" fill-opacity="0.5"/>
<rect width="2.15055" height="0.460455" rx="0.230228" transform="matrix(-1 -1.74846e-07 -1.74846e-07 1 155.155 63.0388)" fill="#A6A6A6" fill-opacity="0.5"/>
<rect width="3.07221" height="2.30227" rx="0.430476" transform="matrix(-1 -1.74846e-07 -1.74846e-07 1 161.271 60.583)" fill="#E26CA5"/>
<rect width="2.15055" height="0.460455" rx="0.230228" transform="matrix(-1 -1.74846e-07 -1.74846e-07 1 160.81 63.0388)" fill="#E26CA5"/>
<rect width="3.07221" height="2.30227" rx="0.430476" transform="matrix(-1 -1.74846e-07 -1.74846e-07 1 166.926 60.583)" fill="#E26CA5"/>
<rect width="2.15055" height="0.460455" rx="0.230228" transform="matrix(-1 -1.74846e-07 -1.74846e-07 1 166.465 63.0388)" fill="#E26CA5"/>
<rect width="3.07221" height="2.30227" rx="0.430476" transform="matrix(-1 -1.74846e-07 -1.74846e-07 1 178.236 60.583)" fill="#A6A6A6" fill-opacity="0.5"/>
<rect width="2.15055" height="0.460455" rx="0.230228" transform="matrix(-1 -1.74846e-07 -1.74846e-07 1 177.776 63.0388)" fill="#A6A6A6" fill-opacity="0.5"/>
<rect width="3.07221" height="2.30227" rx="0.430476" transform="matrix(-1 -1.74846e-07 -1.74846e-07 1 183.891 60.583)" fill="#A6A6A6" fill-opacity="0.5"/>
<rect width="2.15055" height="0.460455" rx="0.230228" transform="matrix(-1 -1.74846e-07 -1.74846e-07 1 183.431 63.0388)" fill="#A6A6A6" fill-opacity="0.5"/>
<rect width="3.07221" height="2.30227" rx="0.430476" transform="matrix(-1 -1.74846e-07 -1.74846e-07 1 189.546 60.583)" fill="#A6A6A6" fill-opacity="0.5"/>
<rect width="2.15055" height="0.460455" rx="0.230228" transform="matrix(-1 -1.74846e-07 -1.74846e-07 1 189.086 63.0388)" fill="#A6A6A6" fill-opacity="0.5"/>
<rect width="3.07221" height="2.30227" rx="0.430476" transform="matrix(-1 -1.74846e-07 -1.74846e-07 1 195.202 60.583)" fill="#61C3F2"/>
<rect width="2.15055" height="0.460455" rx="0.230228" transform="matrix(-1 -1.74846e-07 -1.74846e-07 1 194.741 63.0388)" fill="#61C3F2"/>
<rect width="3.07221" height="2.30227" rx="0.430476" transform="matrix(-1 -1.74846e-07 -1.74846e-07 1 200.857 60.583)" fill="#61C3F2"/>
<rect width="2.15055" height="0.460455" rx="0.230228" transform="matrix(-1 -1.74846e-07 -1.74846e-07 1 200.396 63.0388)" fill="#61C3F2"/>
<rect width="3.07221" height="2.30227" rx="0.430476" transform="matrix(-1 -1.74846e-07 -1.74846e-07 1 59.4799 67.3735)" fill="#A6A6A6" fill-opacity="0.5"/>
<rect width="2.15055" height="0.460455" rx="0.230228" transform="matrix(-1 -1.74846e-07 -1.74846e-07 1 59.019 69.8293)" fill="#A6A6A6" fill-opacity="0.5"/>
<rect width="3.07221" height="2.30227" rx="0.430476" transform="matrix(-1 -1.74846e-07 -1.74846e-07 1 65.1349 67.3735)" fill="#A6A6A6" fill-opacity="0.5"/>
<rect width="2.15055" height="0.460455" rx="0.230228" transform="matrix(-1 -1.74846e-07 -1.74846e-07 1 64.6741 69.8293)" fill="#A6A6A6" fill-opacity="0.5"/>
<rect width="3.07221" height="2.30227" rx="0.430476" transform="matrix(-1 -1.74846e-07 -1.74846e-07 1 70.79 67.3735)" fill="#61C3F2"/>
<rect width="2.15055" height="0.460455" rx="0.230228" transform="matrix(-1 -1.74846e-07 -1.74846e-07 1 70.3292 69.8293)" fill="#61C3F2"/>
<rect width="3.07221" height="2.30227" rx="0.430476" transform="matrix(-1 -1.74846e-07 -1.74846e-07 1 76.4451 67.3735)" fill="#61C3F2"/>
<rect width="2.15055" height="0.460455" rx="0.230228" transform="matrix(-1 -1.74846e-07 -1.74846e-07 1 75.9843 69.8293)" fill="#61C3F2"/>
<rect width="3.07221" height="2.30227" rx="0.430476" transform="matrix(-1 -1.74846e-07 -1.74846e-07 1 82.1002 67.3735)" fill="#A6A6A6" fill-opacity="0.5"/>
<rect width="2.15055" height="0.460455" rx="0.230228" transform="matrix(-1 -1.74846e-07 -1.74846e-07 1 81.6393 69.8293)" fill="#A6A6A6" fill-opacity="0.5"/>
<rect width="3.07221" height="2.30227" rx="0.430476" transform="matrix(-1 -1.74846e-07 -1.74846e-07 1 93.4103 67.3735)" fill="#A6A6A6" fill-opacity="0.5"/>
<rect width="2.15055" height="0.460455" rx="0.230228" transform="matrix(-1 -1.74846e-07 -1.74846e-07 1 92.9495 69.8293)" fill="#A6A6A6" fill-opacity="0.5"/>
<rect width="3.07221" height="2.30227" rx="0.430476" transform="matrix(-1 -1.74846e-07 -1.74846e-07 1 99.0654 67.3735)" fill="#A6A6A6" fill-opacity="0.5"/>
<rect width="2.15055" height="0.460455" rx="0.230228" transform="matrix(-1 -1.74846e-07 -1.74846e-07 1 98.6045 69.8293)" fill="#A6A6A6" fill-opacity="0.5"/>
<rect width="3.07221" height="2.30227" rx="0.430476" transform="matrix(-1 -1.74846e-07 -1.74846e-07 1 104.72 67.3735)" fill="#61C3F2"/>
<rect width="2.15055" height="0.460455" rx="0.230228" transform="matrix(-1 -1.74846e-07 -1.74846e-07 1 104.26 69.8293)" fill="#61C3F2"/>
<rect width="3.07221" height="2.30227" rx="0.430476" transform="matrix(-1 -1.74846e-07 -1.74846e-07 1 110.375 67.3736)" fill="#61C3F2"/>
<rect width="2.15055" height="0.460455" rx="0.230228" transform="matrix(-1 -1.74846e-07 -1.74846e-07 1 109.915 69.8293)" fill="#61C3F2"/>
<rect width="3.07221" height="2.30227" rx="0.430476" transform="matrix(-1 -1.74846e-07 -1.74846e-07 1 116.031 67.3736)" fill="#A6A6A6" fill-opacity="0.5"/>
<rect width="2.15055" height="0.460455" rx="0.230228" transform="matrix(-1 -1.74846e-07 -1.74846e-07 1 115.57 69.8293)" fill="#A6A6A6" fill-opacity="0.5"/>
<rect width="3.07221" height="2.30227" rx="0.430476" transform="matrix(-1 -1.74846e-07 -1.74846e-07 1 121.686 67.3736)" fill="#A6A6A6" fill-opacity="0.5"/>
<rect width="2.15055" height="0.460455" rx="0.230228" transform="matrix(-1 -1.74846e-07 -1.74846e-07 1 121.225 69.8293)" fill="#A6A6A6" fill-opacity="0.5"/>
<rect width="3.07221" height="2.30227" rx="0.430476" transform="matrix(-1 -1.74846e-07 -1.74846e-07 1 127.341 67.3736)" fill="#564CA3"/>
<rect width="2.15055" height="0.460455" rx="0.230228" transform="matrix(-1 -1.74846e-07 -1.74846e-07 1 126.88 69.8293)" fill="#564CA3"/>
<rect width="3.07221" height="2.30227" rx="0.430476" transform="matrix(-1 -1.74846e-07 -1.74846e-07 1 132.996 67.3736)" fill="#564CA3"/>
<rect width="2.15055" height="0.460455" rx="0.230228" transform="matrix(-1 -1.74846e-07 -1.74846e-07 1 132.535 69.8293)" fill="#564CA3"/>
<rect width="3.07221" height="2.30227" rx="0.430476" transform="matrix(-1 -1.74846e-07 -1.74846e-07 1 138.651 67.3736)" fill="#A6A6A6" fill-opacity="0.5"/>
<rect width="2.15055" height="0.460455" rx="0.230228" transform="matrix(-1 -1.74846e-07 -1.74846e-07 1 138.19 69.8293)" fill="#A6A6A6" fill-opacity="0.5"/>
<rect width="3.07221" height="2.30227" rx="0.430476" transform="matrix(-1 -1.74846e-07 -1.74846e-07 1 144.306 67.3736)" fill="#A6A6A6" fill-opacity="0.5"/>
<rect width="2.15055" height="0.460455" rx="0.230228" transform="matrix(-1 -1.74846e-07 -1.74846e-07 1 143.845 69.8293)" fill="#A6A6A6" fill-opacity="0.5"/>
<rect width="3.07221" height="2.30227" rx="0.430476" transform="matrix(-1 -1.74846e-07 -1.74846e-07 1 149.961 67.3736)" fill="#61C3F2"/>
<rect width="2.15055" height="0.460455" rx="0.230228" transform="matrix(-1 -1.74846e-07 -1.74846e-07 1 149.5 69.8293)" fill="#61C3F2"/>
<rect width="3.07221" height="2.30227" rx="0.430476" transform="matrix(-1 -1.74846e-07 -1.74846e-07 1 155.616 67.3736)" fill="#61C3F2"/>
<rect width="2.15055" height="0.460455" rx="0.230228" transform="matrix(-1 -1.74846e-07 -1.74846e-07 1 155.155 69.8293)" fill="#61C3F2"/>
<rect width="3.07221" height="2.30227" rx="0.430476" transform="matrix(-1 -1.74846e-07 -1.74846e-07 1 161.271 67.3736)" fill="#A6A6A6" fill-opacity="0.5"/>
<rect width="2.15055" height="0.460455" rx="0.230228" transform="matrix(-1 -1.74846e-07 -1.74846e-07 1 160.81 69.8293)" fill="#A6A6A6" fill-opacity="0.5"/>
<rect width="3.07221" height="2.30227" rx="0.430476" transform="matrix(-1 -1.74846e-07 -1.74846e-07 1 166.926 67.3736)" fill="#A6A6A6" fill-opacity="0.5"/>
<rect width="2.15055" height="0.460455" rx="0.230228" transform="matrix(-1 -1.74846e-07 -1.74846e-07 1 166.465 69.8293)" fill="#A6A6A6" fill-opacity="0.5"/>
<rect width="3.07221" height="2.30227" rx="0.430476" transform="matrix(-1 -1.74846e-07 -1.74846e-07 1 178.236 67.3736)" fill="#A6A6A6" fill-opacity="0.5"/>
<rect width="2.15055" height="0.460455" rx="0.230228" transform="matrix(-1 -1.74846e-07 -1.74846e-07 1 177.776 69.8293)" fill="#A6A6A6" fill-opacity="0.5"/>
<rect width="3.07221" height="2.30227" rx="0.430476" transform="matrix(-1 -1.74846e-07 -1.74846e-07 1 183.891 67.3736)" fill="#61C3F2"/>
<rect width="2.15055" height="0.460455" rx="0.230228" transform="matrix(-1 -1.74846e-07 -1.74846e-07 1 183.431 69.8293)" fill="#61C3F2"/>
<rect width="3.07221" height="2.30227" rx="0.430476" transform="matrix(-1 -1.74846e-07 -1.74846e-07 1 189.546 67.3736)" fill="#61C3F2"/>
<rect width="2.15055" height="0.460455" rx="0.230228" transform="matrix(-1 -1.74846e-07 -1.74846e-07 1 189.086 69.8293)" fill="#61C3F2"/>
<rect width="3.07221" height="2.30227" rx="0.430476" transform="matrix(-1 -1.74846e-07 -1.74846e-07 1 195.202 67.3736)" fill="#A6A6A6" fill-opacity="0.5"/>
<rect width="2.15055" height="0.460455" rx="0.230228" transform="matrix(-1 -1.74846e-07 -1.74846e-07 1 194.741 69.8293)" fill="#A6A6A6" fill-opacity="0.5"/>
<rect width="3.07221" height="2.30227" rx="0.430476" transform="matrix(-1 -1.74846e-07 -1.74846e-07 1 200.857 67.3736)" fill="#A6A6A6" fill-opacity="0.5"/>
<rect width="2.15055" height="0.460455" rx="0.230228" transform="matrix(-1 -1.74846e-07 -1.74846e-07 1 200.396 69.8293)" fill="#A6A6A6" fill-opacity="0.5"/>
<rect width="3.07221" height="2.30227" rx="0.430476" transform="matrix(-1 -1.74846e-07 -1.74846e-07 1 59.4799 74.1641)" fill="#61C3F2"/>
<rect width="2.15055" height="0.460455" rx="0.230228" transform="matrix(-1 -1.74846e-07 -1.74846e-07 1 59.019 76.6198)" fill="#61C3F2"/>
<rect width="3.07221" height="2.30227" rx="0.430476" transform="matrix(-1 -1.74846e-07 -1.74846e-07 1 65.1349 74.1641)" fill="#61C3F2"/>
<rect width="2.15055" height="0.460455" rx="0.230228" transform="matrix(-1 -1.74846e-07 -1.74846e-07 1 64.6741 76.6198)" fill="#61C3F2"/>
<rect width="3.07221" height="2.30227" rx="0.430476" transform="matrix(-1 -1.74846e-07 -1.74846e-07 1 70.79 74.1641)" fill="#A6A6A6" fill-opacity="0.5"/>
<rect width="2.15055" height="0.460455" rx="0.230228" transform="matrix(-1 -1.74846e-07 -1.74846e-07 1 70.3292 76.6198)" fill="#A6A6A6" fill-opacity="0.5"/>
<rect width="3.07221" height="2.30227" rx="0.430476" transform="matrix(-1 -1.74846e-07 -1.74846e-07 1 76.4451 74.1641)" fill="#A6A6A6" fill-opacity="0.5"/>
<rect width="2.15055" height="0.460455" rx="0.230228" transform="matrix(-1 -1.74846e-07 -1.74846e-07 1 75.9843 76.6198)" fill="#A6A6A6" fill-opacity="0.5"/>
<rect width="3.07221" height="2.30227" rx="0.430476" transform="matrix(-1 -1.74846e-07 -1.74846e-07 1 82.1002 74.1641)" fill="#A6A6A6" fill-opacity="0.5"/>
<rect width="2.15055" height="0.460455" rx="0.230228" transform="matrix(-1 -1.74846e-07 -1.74846e-07 1 81.6393 76.6198)" fill="#A6A6A6" fill-opacity="0.5"/>
<rect width="3.07221" height="2.30227" rx="0.430476" transform="matrix(-1 -1.74846e-07 -1.74846e-07 1 93.4103 74.1641)" fill="#15D2BC"/>
<rect width="2.15055" height="0.460455" rx="0.230228" transform="matrix(-1 -1.74846e-07 -1.74846e-07 1 92.9495 76.6198)" fill="#15D2BC"/>
<rect width="3.07221" height="2.30227" rx="0.430476" transform="matrix(-1 -1.74846e-07 -1.74846e-07 1 99.0654 74.1641)" fill="#15D2BC"/>
<rect width="2.15055" height="0.460455" rx="0.230228" transform="matrix(-1 -1.74846e-07 -1.74846e-07 1 98.6045 76.6198)" fill="#15D2BC"/>
<rect width="3.07221" height="2.30227" rx="0.430476" transform="matrix(-1 -1.74846e-07 -1.74846e-07 1 104.72 74.1641)" fill="#A6A6A6" fill-opacity="0.5"/>
<rect width="2.15055" height="0.460455" rx="0.230228" transform="matrix(-1 -1.74846e-07 -1.74846e-07 1 104.26 76.6198)" fill="#A6A6A6" fill-opacity="0.5"/>
<rect width="3.07221" height="2.30227" rx="0.430476" transform="matrix(-1 -1.74846e-07 -1.74846e-07 1 110.375 74.1641)" fill="#A6A6A6" fill-opacity="0.5"/>
<rect width="2.15055" height="0.460455" rx="0.230228" transform="matrix(-1 -1.74846e-07 -1.74846e-07 1 109.915 76.6198)" fill="#A6A6A6" fill-opacity="0.5"/>
<rect width="3.07221" height="2.30227" rx="0.430476" transform="matrix(-1 -1.74846e-07 -1.74846e-07 1 116.031 74.1641)" fill="#61C3F2"/>
<rect width="2.15055" height="0.460455" rx="0.230228" transform="matrix(-1 -1.74846e-07 -1.74846e-07 1 115.57 76.6198)" fill="#61C3F2"/>
<rect width="3.07221" height="2.30227" rx="0.430476" transform="matrix(-1 -1.74846e-07 -1.74846e-07 1 121.686 74.1641)" fill="#61C3F2"/>
<rect width="2.15055" height="0.460455" rx="0.230228" transform="matrix(-1 -1.74846e-07 -1.74846e-07 1 121.225 76.6198)" fill="#61C3F2"/>
<rect width="3.07221" height="2.30227" rx="0.430476" transform="matrix(-1 -1.74846e-07 -1.74846e-07 1 127.341 74.1641)" fill="#A6A6A6" fill-opacity="0.5"/>
<rect width="2.15055" height="0.460455" rx="0.230228" transform="matrix(-1 -1.74846e-07 -1.74846e-07 1 126.88 76.6198)" fill="#A6A6A6" fill-opacity="0.5"/>
<rect width="3.07221" height="2.30227" rx="0.430476" transform="matrix(-1 -1.74846e-07 -1.74846e-07 1 132.996 74.1641)" fill="#A6A6A6" fill-opacity="0.5"/>
<rect width="2.15055" height="0.460455" rx="0.230228" transform="matrix(-1 -1.74846e-07 -1.74846e-07 1 132.535 76.6198)" fill="#A6A6A6" fill-opacity="0.5"/>
<rect width="3.07221" height="2.30227" rx="0.430476" transform="matrix(-1 -1.74846e-07 -1.74846e-07 1 138.651 74.1641)" fill="#61C3F2"/>
<rect width="2.15055" height="0.460455" rx="0.230228" transform="matrix(-1 -1.74846e-07 -1.74846e-07 1 138.19 76.6198)" fill="#61C3F2"/>
<rect width="3.07221" height="2.30227" rx="0.430476" transform="matrix(-1 -1.74846e-07 -1.74846e-07 1 144.306 74.1641)" fill="#61C3F2"/>
<rect width="2.15055" height="0.460455" rx="0.230228" transform="matrix(-1 -1.74846e-07 -1.74846e-07 1 143.845 76.6198)" fill="#61C3F2"/>
<rect width="3.07221" height="2.30227" rx="0.430476" transform="matrix(-1 -1.74846e-07 -1.74846e-07 1 149.961 74.1641)" fill="#A6A6A6" fill-opacity="0.5"/>
<rect width="2.15055" height="0.460455" rx="0.230228" transform="matrix(-1 -1.74846e-07 -1.74846e-07 1 149.5 76.6198)" fill="#A6A6A6" fill-opacity="0.5"/>
<rect width="3.07221" height="2.30227" rx="0.430476" transform="matrix(-1 -1.74846e-07 -1.74846e-07 1 155.616 74.1641)" fill="#A6A6A6" fill-opacity="0.5"/>
<rect width="2.15055" height="0.460455" rx="0.230228" transform="matrix(-1 -1.74846e-07 -1.74846e-07 1 155.155 76.6198)" fill="#A6A6A6" fill-opacity="0.5"/>
<rect width="3.07221" height="2.30227" rx="0.430476" transform="matrix(-1 -1.74846e-07 -1.74846e-07 1 161.271 74.1641)" fill="#15D2BC"/>
<rect width="2.15055" height="0.460455" rx="0.230228" transform="matrix(-1 -1.74846e-07 -1.74846e-07 1 160.81 76.6198)" fill="#15D2BC"/>
<rect width="3.07221" height="2.30227" rx="0.430476" transform="matrix(-1 -1.74846e-07 -1.74846e-07 1 166.926 74.1641)" fill="#15D2BC"/>
<rect width="2.15055" height="0.460455" rx="0.230228" transform="matrix(-1 -1.74846e-07 -1.74846e-07 1 166.465 76.6198)" fill="#15D2BC"/>
<rect width="3.07221" height="2.30227" rx="0.430476" transform="matrix(-1 -1.74846e-07 -1.74846e-07 1 178.236 74.1641)" fill="#A6A6A6" fill-opacity="0.5"/>
<rect width="2.15055" height="0.460455" rx="0.230228" transform="matrix(-1 -1.74846e-07 -1.74846e-07 1 177.776 76.6198)" fill="#A6A6A6" fill-opacity="0.5"/>
<rect width="3.07221" height="2.30227" rx="0.430476" transform="matrix(-1 -1.74846e-07 -1.74846e-07 1 183.891 74.1641)" fill="#A6A6A6" fill-opacity="0.5"/>
<rect width="2.15055" height="0.460455" rx="0.230228" transform="matrix(-1 -1.74846e-07 -1.74846e-07 1 183.431 76.6198)" fill="#A6A6A6" fill-opacity="0.5"/>
<rect width="3.07221" height="2.30227" rx="0.430476" transform="matrix(-1 -1.74846e-07 -1.74846e-07 1 189.546 74.1641)" fill="#A6A6A6" fill-opacity="0.5"/>
<rect width="2.15055" height="0.460455" rx="0.230228" transform="matrix(-1 -1.74846e-07 -1.74846e-07 1 189.086 76.6198)" fill="#A6A6A6" fill-opacity="0.5"/>
<rect width="3.07221" height="2.30227" rx="0.430476" transform="matrix(-1 -1.74846e-07 -1.74846e-07 1 195.202 74.1641)" fill="#61C3F2"/>
<rect width="2.15055" height="0.460455" rx="0.230228" transform="matrix(-1 -1.74846e-07 -1.74846e-07 1 194.741 76.6198)" fill="#61C3F2"/>
<rect width="3.07221" height="2.30227" rx="0.430476" transform="matrix(-1 -1.74846e-07 -1.74846e-07 1 200.857 74.1641)" fill="#61C3F2"/>
<rect width="2.15055" height="0.460455" rx="0.230228" transform="matrix(-1 -1.74846e-07 -1.74846e-07 1 200.396 76.6198)" fill="#61C3F2"/>
<rect width="3.07221" height="2.30227" rx="0.430476" transform="matrix(-1 -1.74846e-07 -1.74846e-07 1 59.4799 80.9546)" fill="#A6A6A6" fill-opacity="0.5"/>
<rect width="2.15055" height="0.460455" rx="0.230228" transform="matrix(-1 -1.74846e-07 -1.74846e-07 1 59.019 83.4103)" fill="#A6A6A6" fill-opacity="0.5"/>
<rect width="3.07221" height="2.30227" rx="0.430476" transform="matrix(-1 -1.74846e-07 -1.74846e-07 1 65.1349 80.9546)" fill="#A6A6A6" fill-opacity="0.5"/>
<rect width="2.15055" height="0.460455" rx="0.230228" transform="matrix(-1 -1.74846e-07 -1.74846e-07 1 64.6741 83.4103)" fill="#A6A6A6" fill-opacity="0.5"/>
<rect width="3.07221" height="2.30227" rx="0.430476" transform="matrix(-1 -1.74846e-07 -1.74846e-07 1 70.79 80.9546)" fill="#61C3F2"/>
<rect width="2.15055" height="0.460455" rx="0.230228" transform="matrix(-1 -1.74846e-07 -1.74846e-07 1 70.3292 83.4103)" fill="#61C3F2"/>
<rect width="3.07221" height="2.30227" rx="0.430476" transform="matrix(-1 -1.74846e-07 -1.74846e-07 1 76.4451 80.9546)" fill="#61C3F2"/>
<rect width="2.15055" height="0.460455" rx="0.230228" transform="matrix(-1 -1.74846e-07 -1.74846e-07 1 75.9843 83.4103)" fill="#61C3F2"/>
<rect width="3.07221" height="2.30227" rx="0.430476" transform="matrix(-1 -1.74846e-07 -1.74846e-07 1 82.1002 80.9546)" fill="#A6A6A6" fill-opacity="0.5"/>
<rect width="2.15055" height="0.460455" rx="0.230228" transform="matrix(-1 -1.74846e-07 -1.74846e-07 1 81.6393 83.4103)" fill="#A6A6A6" fill-opacity="0.5"/>
<rect width="3.07221" height="2.30227" rx="0.430476" transform="matrix(-1 -1.74846e-07 -1.74846e-07 1 93.4103 80.9546)" fill="#A6A6A6" fill-opacity="0.5"/>
<rect width="2.15055" height="0.460455" rx="0.230228" transform="matrix(-1 -1.74846e-07 -1.74846e-07 1 92.9495 83.4103)" fill="#A6A6A6" fill-opacity="0.5"/>
<rect width="3.07221" height="2.30227" rx="0.430476" transform="matrix(-1 -1.74846e-07 -1.74846e-07 1 99.0654 80.9546)" fill="#A6A6A6" fill-opacity="0.5"/>
<rect width="2.15055" height="0.460455" rx="0.230228" transform="matrix(-1 -1.74846e-07 -1.74846e-07 1 98.6045 83.4103)" fill="#A6A6A6" fill-opacity="0.5"/>
<rect width="3.07221" height="2.30227" rx="0.430476" transform="matrix(-1 -1.74846e-07 -1.74846e-07 1 104.72 80.9546)" fill="#61C3F2"/>
<rect width="2.15055" height="0.460455" rx="0.230228" transform="matrix(-1 -1.74846e-07 -1.74846e-07 1 104.26 83.4103)" fill="#61C3F2"/>
<rect width="3.07221" height="2.30227" rx="0.430476" transform="matrix(-1 -1.74846e-07 -1.74846e-07 1 110.375 80.9546)" fill="#61C3F2"/>
<rect width="2.15055" height="0.460455" rx="0.230228" transform="matrix(-1 -1.74846e-07 -1.74846e-07 1 109.915 83.4103)" fill="#61C3F2"/>
<rect width="3.07221" height="2.30227" rx="0.430476" transform="matrix(-1 -1.74846e-07 -1.74846e-07 1 116.031 80.9546)" fill="#A6A6A6" fill-opacity="0.5"/>
<rect width="2.15055" height="0.460455" rx="0.230228" transform="matrix(-1 -1.74846e-07 -1.74846e-07 1 115.57 83.4103)" fill="#A6A6A6" fill-opacity="0.5"/>
<rect width="3.07221" height="2.30227" rx="0.430476" transform="matrix(-1 -1.74846e-07 -1.74846e-07 1 121.686 80.9546)" fill="#A6A6A6" fill-opacity="0.5"/>
<rect width="2.15055" height="0.460455" rx="0.230228" transform="matrix(-1 -1.74846e-07 -1.74846e-07 1 121.225 83.4103)" fill="#A6A6A6" fill-opacity="0.5"/>
<rect width="3.07221" height="2.30227" rx="0.430476" transform="matrix(-1 -1.74846e-07 -1.74846e-07 1 127.341 80.9546)" fill="#61C3F2"/>
<rect width="2.15055" height="0.460455" rx="0.230228" transform="matrix(-1 -1.74846e-07 -1.74846e-07 1 126.88 83.4103)" fill="#61C3F2"/>
<rect width="3.07221" height="2.30227" rx="0.430476" transform="matrix(-1 -1.74846e-07 -1.74846e-07 1 132.996 80.9546)" fill="#61C3F2"/>
<rect width="2.15055" height="0.460455" rx="0.230228" transform="matrix(-1 -1.74846e-07 -1.74846e-07 1 132.535 83.4103)" fill="#61C3F2"/>
<rect width="3.07221" height="2.30227" rx="0.430476" transform="matrix(-1 -1.74846e-07 -1.74846e-07 1 138.651 80.9546)" fill="#A6A6A6" fill-opacity="0.5"/>
<rect width="2.15055" height="0.460455" rx="0.230228" transform="matrix(-1 -1.74846e-07 -1.74846e-07 1 138.19 83.4103)" fill="#A6A6A6" fill-opacity="0.5"/>
<rect width="3.07221" height="2.30227" rx="0.430476" transform="matrix(-1 -1.74846e-07 -1.74846e-07 1 144.306 80.9546)" fill="#A6A6A6" fill-opacity="0.5"/>
<rect width="2.15055" height="0.460455" rx="0.230228" transform="matrix(-1 -1.74846e-07 -1.74846e-07 1 143.845 83.4103)" fill="#A6A6A6" fill-opacity="0.5"/>
<rect width="3.07221" height="2.30227" rx="0.430476" transform="matrix(-1 -1.74846e-07 -1.74846e-07 1 149.961 80.9546)" fill="#61C3F2"/>
<rect width="2.15055" height="0.460455" rx="0.230228" transform="matrix(-1 -1.74846e-07 -1.74846e-07 1 149.5 83.4103)" fill="#61C3F2"/>
<rect width="3.07221" height="2.30227" rx="0.430476" transform="matrix(-1 -1.74846e-07 -1.74846e-07 1 155.616 80.9546)" fill="#61C3F2"/>
<rect width="2.15055" height="0.460455" rx="0.230228" transform="matrix(-1 -1.74846e-07 -1.74846e-07 1 155.155 83.4103)" fill="#61C3F2"/>
<rect width="3.07221" height="2.30227" rx="0.430476" transform="matrix(-1 -1.74846e-07 -1.74846e-07 1 161.271 80.9546)" fill="#A6A6A6" fill-opacity="0.5"/>
<rect width="2.15055" height="0.460455" rx="0.230228" transform="matrix(-1 -1.74846e-07 -1.74846e-07 1 160.81 83.4103)" fill="#A6A6A6" fill-opacity="0.5"/>
<rect width="3.07221" height="2.30227" rx="0.430476" transform="matrix(-1 -1.74846e-07 -1.74846e-07 1 166.926 80.9546)" fill="#A6A6A6" fill-opacity="0.5"/>
<rect width="2.15055" height="0.460455" rx="0.230228" transform="matrix(-1 -1.74846e-07 -1.74846e-07 1 166.465 83.4103)" fill="#A6A6A6" fill-opacity="0.5"/>
<rect width="3.07221" height="2.30227" rx="0.430476" transform="matrix(-1 -1.74846e-07 -1.74846e-07 1 178.236 80.9546)" fill="#A6A6A6" fill-opacity="0.5"/>
<rect width="2.15055" height="0.460455" rx="0.230228" transform="matrix(-1 -1.74846e-07 -1.74846e-07 1 177.776 83.4103)" fill="#A6A6A6" fill-opacity="0.5"/>
<rect width="3.07221" height="2.30227" rx="0.430476" transform="matrix(-1 -1.74846e-07 -1.74846e-07 1 183.891 80.9546)" fill="#61C3F2"/>
<rect width="2.15055" height="0.460455" rx="0.230228" transform="matrix(-1 -1.74846e-07 -1.74846e-07 1 183.431 83.4103)" fill="#61C3F2"/>
<rect width="3.07221" height="2.30227" rx="0.430476" transform="matrix(-1 -1.74846e-07 -1.74846e-07 1 189.546 80.9546)" fill="#61C3F2"/>
<rect width="2.15055" height="0.460455" rx="0.230228" transform="matrix(-1 -1.74846e-07 -1.74846e-07 1 189.086 83.4103)" fill="#61C3F2"/>
<rect width="3.07221" height="2.30227" rx="0.430476" transform="matrix(-1 -1.74846e-07 -1.74846e-07 1 195.202 80.9546)" fill="#A6A6A6" fill-opacity="0.5"/>
<rect width="2.15055" height="0.460455" rx="0.230228" transform="matrix(-1 -1.74846e-07 -1.74846e-07 1 194.741 83.4103)" fill="#A6A6A6" fill-opacity="0.5"/>
<rect width="3.07221" height="2.30227" rx="0.430476" transform="matrix(-1 -1.74846e-07 -1.74846e-07 1 200.857 80.9546)" fill="#A6A6A6" fill-opacity="0.5"/>
<rect width="2.15055" height="0.460455" rx="0.230228" transform="matrix(-1 -1.74846e-07 -1.74846e-07 1 200.396 83.4103)" fill="#A6A6A6" fill-opacity="0.5"/>
<rect width="3.07221" height="2.30227" rx="0.430476" transform="matrix(-1 -1.74846e-07 -1.74846e-07 1 59.4799 87.7451)" fill="#61C3F2"/>
<rect width="2.15055" height="0.460455" rx="0.230228" transform="matrix(-1 -1.74846e-07 -1.74846e-07 1 59.019 90.2008)" fill="#61C3F2"/>
<rect width="3.07221" height="2.30227" rx="0.430476" transform="matrix(-1 -1.74846e-07 -1.74846e-07 1 65.1349 87.7451)" fill="#61C3F2"/>
<rect width="2.15055" height="0.460455" rx="0.230228" transform="matrix(-1 -1.74846e-07 -1.74846e-07 1 64.6741 90.2008)" fill="#61C3F2"/>
<rect width="3.07221" height="2.30227" rx="0.430476" transform="matrix(-1 -1.74846e-07 -1.74846e-07 1 70.79 87.7451)" fill="#A6A6A6" fill-opacity="0.5"/>
<rect width="2.15055" height="0.460455" rx="0.230228" transform="matrix(-1 -1.74846e-07 -1.74846e-07 1 70.3292 90.2008)" fill="#A6A6A6" fill-opacity="0.5"/>
<rect width="3.07221" height="2.30227" rx="0.430476" transform="matrix(-1 -1.74846e-07 -1.74846e-07 1 76.4451 87.7451)" fill="#A6A6A6" fill-opacity="0.5"/>
<rect width="2.15055" height="0.460455" rx="0.230228" transform="matrix(-1 -1.74846e-07 -1.74846e-07 1 75.9843 90.2008)" fill="#A6A6A6" fill-opacity="0.5"/>
<rect width="3.07221" height="2.30227" rx="0.430476" transform="matrix(-1 -1.74846e-07 -1.74846e-07 1 82.1002 87.7451)" fill="#A6A6A6" fill-opacity="0.5"/>
<rect width="2.15055" height="0.460455" rx="0.230228" transform="matrix(-1 -1.74846e-07 -1.74846e-07 1 81.6393 90.2008)" fill="#A6A6A6" fill-opacity="0.5"/>
<rect width="3.07221" height="2.30227" rx="0.430476" transform="matrix(-1 -1.74846e-07 -1.74846e-07 1 93.4103 87.7451)" fill="#61C3F2"/>
<rect width="2.15055" height="0.460455" rx="0.230228" transform="matrix(-1 -1.74846e-07 -1.74846e-07 1 92.9495 90.2008)" fill="#61C3F2"/>
<rect width="3.07221" height="2.30227" rx="0.430476" transform="matrix(-1 -1.74846e-07 -1.74846e-07 1 99.0654 87.7451)" fill="#61C3F2"/>
<rect width="2.15055" height="0.460455" rx="0.230228" transform="matrix(-1 -1.74846e-07 -1.74846e-07 1 98.6045 90.2008)" fill="#61C3F2"/>
<rect width="3.07221" height="2.30227" rx="0.430476" transform="matrix(-1 -1.74846e-07 -1.74846e-07 1 104.72 87.7451)" fill="#A6A6A6" fill-opacity="0.5"/>
<rect width="2.15055" height="0.460455" rx="0.230228" transform="matrix(-1 -1.74846e-07 -1.74846e-07 1 104.26 90.2008)" fill="#A6A6A6" fill-opacity="0.5"/>
<rect width="3.07221" height="2.30227" rx="0.430476" transform="matrix(-1 -1.74846e-07 -1.74846e-07 1 110.375 87.7451)" fill="#A6A6A6" fill-opacity="0.5"/>
<rect width="2.15055" height="0.460455" rx="0.230228" transform="matrix(-1 -1.74846e-07 -1.74846e-07 1 109.915 90.2008)" fill="#A6A6A6" fill-opacity="0.5"/>
<rect width="3.07221" height="2.30227" rx="0.430476" transform="matrix(-1 -1.74846e-07 -1.74846e-07 1 116.031 87.7451)" fill="#61C3F2"/>
<rect width="2.15055" height="0.460455" rx="0.230228" transform="matrix(-1 -1.74846e-07 -1.74846e-07 1 115.57 90.2008)" fill="#61C3F2"/>
<rect width="3.07221" height="2.30227" rx="0.430476" transform="matrix(-1 -1.74846e-07 -1.74846e-07 1 121.686 87.7451)" fill="#61C3F2"/>
<rect width="2.15055" height="0.460455" rx="0.230228" transform="matrix(-1 -1.74846e-07 -1.74846e-07 1 121.225 90.2008)" fill="#61C3F2"/>
<rect width="3.07221" height="2.30227" rx="0.430476" transform="matrix(-1 -1.74846e-07 -1.74846e-07 1 127.341 87.7451)" fill="#A6A6A6" fill-opacity="0.5"/>
<rect width="2.15055" height="0.460455" rx="0.230228" transform="matrix(-1 -1.74846e-07 -1.74846e-07 1 126.88 90.2008)" fill="#A6A6A6" fill-opacity="0.5"/>
<rect width="3.07221" height="2.30227" rx="0.430476" transform="matrix(-1 -1.74846e-07 -1.74846e-07 1 132.996 87.7451)" fill="#A6A6A6" fill-opacity="0.5"/>
<rect width="2.15055" height="0.460455" rx="0.230228" transform="matrix(-1 -1.74846e-07 -1.74846e-07 1 132.535 90.2008)" fill="#A6A6A6" fill-opacity="0.5"/>
<rect width="3.07221" height="2.30227" rx="0.430476" transform="matrix(-1 -1.74846e-07 -1.74846e-07 1 138.651 87.7451)" fill="#61C3F2"/>
<rect width="2.15055" height="0.460455" rx="0.230228" transform="matrix(-1 -1.74846e-07 -1.74846e-07 1 138.19 90.2008)" fill="#61C3F2"/>
<rect width="3.07221" height="2.30227" rx="0.430476" transform="matrix(-1 -1.74846e-07 -1.74846e-07 1 144.306 87.7451)" fill="#61C3F2"/>
<rect width="2.15055" height="0.460455" rx="0.230228" transform="matrix(-1 -1.74846e-07 -1.74846e-07 1 143.845 90.2008)" fill="#61C3F2"/>
<rect width="3.07221" height="2.30227" rx="0.430476" transform="matrix(-1 -1.74846e-07 -1.74846e-07 1 149.961 87.7451)" fill="#A6A6A6" fill-opacity="0.5"/>
<rect width="2.15055" height="0.460455" rx="0.230228" transform="matrix(-1 -1.74846e-07 -1.74846e-07 1 149.5 90.2008)" fill="#A6A6A6" fill-opacity="0.5"/>
<rect width="3.07221" height="2.30227" rx="0.430476" transform="matrix(-1 -1.74846e-07 -1.74846e-07 1 155.616 87.7451)" fill="#A6A6A6" fill-opacity="0.5"/>
<rect width="2.15055" height="0.460455" rx="0.230228" transform="matrix(-1 -1.74846e-07 -1.74846e-07 1 155.155 90.2008)" fill="#A6A6A6" fill-opacity="0.5"/>
<rect width="3.07221" height="2.30227" rx="0.430476" transform="matrix(-1 -1.74846e-07 -1.74846e-07 1 161.271 87.7451)" fill="#61C3F2"/>
<rect width="2.15055" height="0.460455" rx="0.230228" transform="matrix(-1 -1.74846e-07 -1.74846e-07 1 160.81 90.2008)" fill="#61C3F2"/>
<rect width="3.07221" height="2.30227" rx="0.430476" transform="matrix(-1 -1.74846e-07 -1.74846e-07 1 166.926 87.7451)" fill="#61C3F2"/>
<rect width="2.15055" height="0.460455" rx="0.230228" transform="matrix(-1 -1.74846e-07 -1.74846e-07 1 166.465 90.2008)" fill="#61C3F2"/>
<rect width="3.07221" height="2.30227" rx="0.430476" transform="matrix(-1 -1.74846e-07 -1.74846e-07 1 178.236 87.7451)" fill="#A6A6A6" fill-opacity="0.5"/>
<rect width="2.15055" height="0.460455" rx="0.230228" transform="matrix(-1 -1.74846e-07 -1.74846e-07 1 177.776 90.2008)" fill="#A6A6A6" fill-opacity="0.5"/>
<rect width="3.07221" height="2.30227" rx="0.430476" transform="matrix(-1 -1.74846e-07 -1.74846e-07 1 183.891 87.7451)" fill="#A6A6A6" fill-opacity="0.5"/>
<rect width="2.15055" height="0.460455" rx="0.230228" transform="matrix(-1 -1.74846e-07 -1.74846e-07 1 183.431 90.2008)" fill="#A6A6A6" fill-opacity="0.5"/>
<rect width="3.07221" height="2.30227" rx="0.430476" transform="matrix(-1 -1.74846e-07 -1.74846e-07 1 189.546 87.7451)" fill="#A6A6A6" fill-opacity="0.5"/>
<rect width="2.15055" height="0.460455" rx="0.230228" transform="matrix(-1 -1.74846e-07 -1.74846e-07 1 189.086 90.2008)" fill="#A6A6A6" fill-opacity="0.5"/>
<rect width="3.07221" height="2.30227" rx="0.430476" transform="matrix(-1 -1.74846e-07 -1.74846e-07 1 195.202 87.7451)" fill="#61C3F2"/>
<rect width="2.15055" height="0.460455" rx="0.230228" transform="matrix(-1 -1.74846e-07 -1.74846e-07 1 194.741 90.2008)" fill="#61C3F2"/>
<rect width="3.07221" height="2.30227" rx="0.430476" transform="matrix(-1 -1.74846e-07 -1.74846e-07 1 200.857 87.7451)" fill="#61C3F2"/>
<rect width="2.15055" height="0.460455" rx="0.230228" transform="matrix(-1 -1.74846e-07 -1.74846e-07 1 200.396 90.2008)" fill="#61C3F2"/>
<rect width="3.07221" height="2.30227" rx="0.430476" transform="matrix(-1 -1.74846e-07 -1.74846e-07 1 59.4799 94.5356)" fill="#A6A6A6" fill-opacity="0.5"/>
<rect width="2.15055" height="0.460455" rx="0.230228" transform="matrix(-1 -1.74846e-07 -1.74846e-07 1 59.019 96.9913)" fill="#A6A6A6" fill-opacity="0.5"/>
<rect width="3.07221" height="2.30227" rx="0.430476" transform="matrix(-1 -1.74846e-07 -1.74846e-07 1 65.1349 94.5356)" fill="#A6A6A6" fill-opacity="0.5"/>
<rect width="2.15055" height="0.460455" rx="0.230228" transform="matrix(-1 -1.74846e-07 -1.74846e-07 1 64.6741 96.9913)" fill="#A6A6A6" fill-opacity="0.5"/>
<rect width="3.07221" height="2.30227" rx="0.430476" transform="matrix(-1 -1.74846e-07 -1.74846e-07 1 70.79 94.5356)" fill="#61C3F2"/>
<rect width="2.15055" height="0.460455" rx="0.230228" transform="matrix(-1 -1.74846e-07 -1.74846e-07 1 70.3292 96.9913)" fill="#61C3F2"/>
<rect width="3.07221" height="2.30227" rx="0.430476" transform="matrix(-1 -1.74846e-07 -1.74846e-07 1 76.4451 94.5356)" fill="#61C3F2"/>
<rect width="2.15055" height="0.460455" rx="0.230228" transform="matrix(-1 -1.74846e-07 -1.74846e-07 1 75.9843 96.9913)" fill="#61C3F2"/>
<rect width="3.07221" height="2.30227" rx="0.430476" transform="matrix(-1 -1.74846e-07 -1.74846e-07 1 82.1002 94.5356)" fill="#A6A6A6" fill-opacity="0.5"/>
<rect width="2.15055" height="0.460455" rx="0.230228" transform="matrix(-1 -1.74846e-07 -1.74846e-07 1 81.6393 96.9913)" fill="#A6A6A6" fill-opacity="0.5"/>
<rect width="3.07221" height="2.30227" rx="0.430476" transform="matrix(-1 -1.74846e-07 -1.74846e-07 1 93.4103 94.5356)" fill="#A6A6A6" fill-opacity="0.5"/>
<rect width="2.15055" height="0.460455" rx="0.230228" transform="matrix(-1 -1.74846e-07 -1.74846e-07 1 92.9495 96.9913)" fill="#A6A6A6" fill-opacity="0.5"/>
<rect width="3.07221" height="2.30227" rx="0.430476" transform="matrix(-1 -1.74846e-07 -1.74846e-07 1 99.0654 94.5356)" fill="#A6A6A6" fill-opacity="0.5"/>
<rect width="2.15055" height="0.460455" rx="0.230228" transform="matrix(-1 -1.74846e-07 -1.74846e-07 1 98.6045 96.9913)" fill="#A6A6A6" fill-opacity="0.5"/>
<rect width="3.07221" height="2.30227" rx="0.430476" transform="matrix(-1 -1.74846e-07 -1.74846e-07 1 104.72 94.5356)" fill="#61C3F2"/>
<rect width="2.15055" height="0.460455" rx="0.230228" transform="matrix(-1 -1.74846e-07 -1.74846e-07 1 104.26 96.9913)" fill="#61C3F2"/>
<rect width="3.07221" height="2.30227" rx="0.430476" transform="matrix(-1 -1.74846e-07 -1.74846e-07 1 110.375 94.5356)" fill="#61C3F2"/>
<rect width="2.15055" height="0.460455" rx="0.230228" transform="matrix(-1 -1.74846e-07 -1.74846e-07 1 109.915 96.9913)" fill="#61C3F2"/>
<rect width="3.07221" height="2.30227" rx="0.430476" transform="matrix(-1 -1.74846e-07 -1.74846e-07 1 116.031 94.5356)" fill="#A6A6A6" fill-opacity="0.5"/>
<rect width="2.15055" height="0.460455" rx="0.230228" transform="matrix(-1 -1.74846e-07 -1.74846e-07 1 115.57 96.9913)" fill="#A6A6A6" fill-opacity="0.5"/>
<rect width="3.07221" height="2.30227" rx="0.430476" transform="matrix(-1 -1.74846e-07 -1.74846e-07 1 121.686 94.5356)" fill="#A6A6A6" fill-opacity="0.5"/>
<rect width="2.15055" height="0.460455" rx="0.230228" transform="matrix(-1 -1.74846e-07 -1.74846e-07 1 121.225 96.9913)" fill="#A6A6A6" fill-opacity="0.5"/>
<rect width="3.07221" height="2.30227" rx="0.430476" transform="matrix(-1 -1.74846e-07 -1.74846e-07 1 127.341 94.5356)" fill="#61C3F2"/>
<rect width="2.15055" height="0.460455" rx="0.230228" transform="matrix(-1 -1.74846e-07 -1.74846e-07 1 126.88 96.9913)" fill="#61C3F2"/>
<rect width="3.07221" height="2.30227" rx="0.430476" transform="matrix(-1 -1.74846e-07 -1.74846e-07 1 132.996 94.5356)" fill="#61C3F2"/>
<rect width="2.15055" height="0.460455" rx="0.230228" transform="matrix(-1 -1.74846e-07 -1.74846e-07 1 132.535 96.9913)" fill="#61C3F2"/>
<rect width="3.07221" height="2.30227" rx="0.430476" transform="matrix(-1 -1.74846e-07 -1.74846e-07 1 138.651 94.5356)" fill="#A6A6A6" fill-opacity="0.5"/>
<rect width="2.15055" height="0.460455" rx="0.230228" transform="matrix(-1 -1.74846e-07 -1.74846e-07 1 138.19 96.9913)" fill="#A6A6A6" fill-opacity="0.5"/>
<rect width="3.07221" height="2.30227" rx="0.430476" transform="matrix(-1 -1.74846e-07 -1.74846e-07 1 144.306 94.5356)" fill="#A6A6A6" fill-opacity="0.5"/>
<rect width="2.15055" height="0.460455" rx="0.230228" transform="matrix(-1 -1.74846e-07 -1.74846e-07 1 143.845 96.9913)" fill="#A6A6A6" fill-opacity="0.5"/>
<rect width="3.07221" height="2.30227" rx="0.430476" transform="matrix(-1 -1.74846e-07 -1.74846e-07 1 149.961 94.5356)" fill="#61C3F2"/>
<rect width="2.15055" height="0.460455" rx="0.230228" transform="matrix(-1 -1.74846e-07 -1.74846e-07 1 149.5 96.9913)" fill="#61C3F2"/>
<rect width="3.07221" height="2.30227" rx="0.430476" transform="matrix(-1 -1.74846e-07 -1.74846e-07 1 155.616 94.5356)" fill="#61C3F2"/>
<rect width="2.15055" height="0.460455" rx="0.230228" transform="matrix(-1 -1.74846e-07 -1.74846e-07 1 155.155 96.9913)" fill="#61C3F2"/>
<rect width="3.07221" height="2.30227" rx="0.430476" transform="matrix(-1 -1.74846e-07 -1.74846e-07 1 161.271 94.5356)" fill="#A6A6A6" fill-opacity="0.5"/>
<rect width="2.15055" height="0.460455" rx="0.230228" transform="matrix(-1 -1.74846e-07 -1.74846e-07 1 160.81 96.9913)" fill="#A6A6A6" fill-opacity="0.5"/>
<rect width="3.07221" height="2.30227" rx="0.430476" transform="matrix(-1 -1.74846e-07 -1.74846e-07 1 166.926 94.5356)" fill="#A6A6A6" fill-opacity="0.5"/>
<rect width="2.15055" height="0.460455" rx="0.230228" transform="matrix(-1 -1.74846e-07 -1.74846e-07 1 166.465 96.9913)" fill="#A6A6A6" fill-opacity="0.5"/>
<rect width="3.07221" height="2.30227" rx="0.430476" transform="matrix(-1 -1.74846e-07 -1.74846e-07 1 178.236 94.5356)" fill="#A6A6A6" fill-opacity="0.5"/>
<rect width="2.15055" height="0.460455" rx="0.230228" transform="matrix(-1 -1.74846e-07 -1.74846e-07 1 177.776 96.9913)" fill="#A6A6A6" fill-opacity="0.5"/>
<rect width="3.07221" height="2.30227" rx="0.430476" transform="matrix(-1 -1.74846e-07 -1.74846e-07 1 183.891 94.5356)" fill="#61C3F2"/>
<rect width="2.15055" height="0.460455" rx="0.230228" transform="matrix(-1 -1.74846e-07 -1.74846e-07 1 183.431 96.9913)" fill="#61C3F2"/>
<rect width="3.07221" height="2.30227" rx="0.430476" transform="matrix(-1 -1.74846e-07 -1.74846e-07 1 189.546 94.5356)" fill="#61C3F2"/>
<rect width="2.15055" height="0.460455" rx="0.230228" transform="matrix(-1 -1.74846e-07 -1.74846e-07 1 189.086 96.9913)" fill="#61C3F2"/>
<rect width="3.07221" height="2.30227" rx="0.430476" transform="matrix(-1 -1.74846e-07 -1.74846e-07 1 195.202 94.5356)" fill="#A6A6A6" fill-opacity="0.5"/>
<rect width="2.15055" height="0.460455" rx="0.230228" transform="matrix(-1 -1.74846e-07 -1.74846e-07 1 194.741 96.9913)" fill="#A6A6A6" fill-opacity="0.5"/>
<rect width="3.07221" height="2.30227" rx="0.430476" transform="matrix(-1 -1.74846e-07 -1.74846e-07 1 200.857 94.5356)" fill="#A6A6A6" fill-opacity="0.5"/>
<rect width="2.15055" height="0.460455" rx="0.230228" transform="matrix(-1 -1.74846e-07 -1.74846e-07 1 200.396 96.9913)" fill="#A6A6A6" fill-opacity="0.5"/>
<rect width="3.07221" height="2.30227" rx="0.430476" transform="matrix(-1 -1.74846e-07 -1.74846e-07 1 59.4799 101.326)" fill="#61C3F2"/>
<rect width="2.15055" height="0.460455" rx="0.230228" transform="matrix(-1 -1.74846e-07 -1.74846e-07 1 59.019 103.782)" fill="#61C3F2"/>
<rect width="3.07221" height="2.30227" rx="0.430476" transform="matrix(-1 -1.74846e-07 -1.74846e-07 1 65.1349 101.326)" fill="#61C3F2"/>
<rect width="2.15055" height="0.460455" rx="0.230228" transform="matrix(-1 -1.74846e-07 -1.74846e-07 1 64.6741 103.782)" fill="#61C3F2"/>
<rect width="3.07221" height="2.30227" rx="0.430476" transform="matrix(-1 -1.74846e-07 -1.74846e-07 1 70.79 101.326)" fill="#A6A6A6" fill-opacity="0.5"/>
<rect width="2.15055" height="0.460455" rx="0.230228" transform="matrix(-1 -1.74846e-07 -1.74846e-07 1 70.3292 103.782)" fill="#A6A6A6" fill-opacity="0.5"/>
<rect width="3.07221" height="2.30227" rx="0.430476" transform="matrix(-1 -1.74846e-07 -1.74846e-07 1 76.4451 101.326)" fill="#A6A6A6" fill-opacity="0.5"/>
<rect width="2.15055" height="0.460455" rx="0.230228" transform="matrix(-1 -1.74846e-07 -1.74846e-07 1 75.9843 103.782)" fill="#A6A6A6" fill-opacity="0.5"/>
<rect width="3.07221" height="2.30227" rx="0.430476" transform="matrix(-1 -1.74846e-07 -1.74846e-07 1 82.1002 101.326)" fill="#A6A6A6" fill-opacity="0.5"/>
<rect width="2.15055" height="0.460455" rx="0.230228" transform="matrix(-1 -1.74846e-07 -1.74846e-07 1 81.6393 103.782)" fill="#A6A6A6" fill-opacity="0.5"/>
<rect width="3.07221" height="2.30227" rx="0.430476" transform="matrix(-1 -1.74846e-07 -1.74846e-07 1 93.4103 101.326)" fill="#61C3F2"/>
<rect width="2.15055" height="0.460455" rx="0.230228" transform="matrix(-1 -1.74846e-07 -1.74846e-07 1 92.9495 103.782)" fill="#61C3F2"/>
<rect width="3.07221" height="2.30227" rx="0.430476" transform="matrix(-1 -1.74846e-07 -1.74846e-07 1 99.0654 101.326)" fill="#61C3F2"/>
<rect width="2.15055" height="0.460455" rx="0.230228" transform="matrix(-1 -1.74846e-07 -1.74846e-07 1 98.6045 103.782)" fill="#61C3F2"/>
<rect width="3.07221" height="2.30227" rx="0.430476" transform="matrix(-1 -1.74846e-07 -1.74846e-07 1 104.72 101.326)" fill="#A6A6A6" fill-opacity="0.5"/>
<rect width="2.15055" height="0.460455" rx="0.230228" transform="matrix(-1 -1.74846e-07 -1.74846e-07 1 104.26 103.782)" fill="#A6A6A6" fill-opacity="0.5"/>
<rect width="3.07221" height="2.30227" rx="0.430476" transform="matrix(-1 -1.74846e-07 -1.74846e-07 1 110.375 101.326)" fill="#A6A6A6" fill-opacity="0.5"/>
<rect width="2.15055" height="0.460455" rx="0.230228" transform="matrix(-1 -1.74846e-07 -1.74846e-07 1 109.915 103.782)" fill="#A6A6A6" fill-opacity="0.5"/>
<rect width="3.07221" height="2.30227" rx="0.430476" transform="matrix(-1 -1.74846e-07 -1.74846e-07 1 116.031 101.326)" fill="#61C3F2"/>
<rect width="2.15055" height="0.460455" rx="0.230228" transform="matrix(-1 -1.74846e-07 -1.74846e-07 1 115.57 103.782)" fill="#61C3F2"/>
<rect width="3.07221" height="2.30227" rx="0.430476" transform="matrix(-1 -1.74846e-07 -1.74846e-07 1 121.686 101.326)" fill="#61C3F2"/>
<rect width="2.15055" height="0.460455" rx="0.230228" transform="matrix(-1 -1.74846e-07 -1.74846e-07 1 121.225 103.782)" fill="#61C3F2"/>
<rect width="3.07221" height="2.30227" rx="0.430476" transform="matrix(-1 -1.74846e-07 -1.74846e-07 1 127.341 101.326)" fill="#A6A6A6" fill-opacity="0.5"/>
<rect width="2.15055" height="0.460455" rx="0.230228" transform="matrix(-1 -1.74846e-07 -1.74846e-07 1 126.88 103.782)" fill="#A6A6A6" fill-opacity="0.5"/>
<rect width="3.07221" height="2.30227" rx="0.430476" transform="matrix(-1 -1.74846e-07 -1.74846e-07 1 132.996 101.326)" fill="#A6A6A6" fill-opacity="0.5"/>
<rect width="2.15055" height="0.460455" rx="0.230228" transform="matrix(-1 -1.74846e-07 -1.74846e-07 1 132.535 103.782)" fill="#A6A6A6" fill-opacity="0.5"/>
<rect width="3.07221" height="2.30227" rx="0.430476" transform="matrix(-1 -1.74846e-07 -1.74846e-07 1 138.651 101.326)" fill="#61C3F2"/>
<rect width="2.15055" height="0.460455" rx="0.230228" transform="matrix(-1 -1.74846e-07 -1.74846e-07 1 138.19 103.782)" fill="#61C3F2"/>
<rect width="3.07221" height="2.30227" rx="0.430476" transform="matrix(-1 -1.74846e-07 -1.74846e-07 1 144.306 101.326)" fill="#61C3F2"/>
<rect width="2.15055" height="0.460455" rx="0.230228" transform="matrix(-1 -1.74846e-07 -1.74846e-07 1 143.845 103.782)" fill="#61C3F2"/>
<rect width="3.07221" height="2.30227" rx="0.430476" transform="matrix(-1 -1.74846e-07 -1.74846e-07 1 149.961 101.326)" fill="#A6A6A6" fill-opacity="0.5"/>
<rect width="2.15055" height="0.460455" rx="0.230228" transform="matrix(-1 -1.74846e-07 -1.74846e-07 1 149.5 103.782)" fill="#A6A6A6" fill-opacity="0.5"/>
<rect width="3.07221" height="2.30227" rx="0.430476" transform="matrix(-1 -1.74846e-07 -1.74846e-07 1 155.616 101.326)" fill="#A6A6A6" fill-opacity="0.5"/>
<rect width="2.15055" height="0.460455" rx="0.230228" transform="matrix(-1 -1.74846e-07 -1.74846e-07 1 155.155 103.782)" fill="#A6A6A6" fill-opacity="0.5"/>
<rect width="3.07221" height="2.30227" rx="0.430476" transform="matrix(-1 -1.74846e-07 -1.74846e-07 1 161.271 101.326)" fill="#61C3F2"/>
<rect width="2.15055" height="0.460455" rx="0.230228" transform="matrix(-1 -1.74846e-07 -1.74846e-07 1 160.81 103.782)" fill="#61C3F2"/>
<rect width="3.07221" height="2.30227" rx="0.430476" transform="matrix(-1 -1.74846e-07 -1.74846e-07 1 166.926 101.326)" fill="#61C3F2"/>
<rect width="2.15055" height="0.460455" rx="0.230228" transform="matrix(-1 -1.74846e-07 -1.74846e-07 1 166.465 103.782)" fill="#61C3F2"/>
<rect width="3.07221" height="2.30227" rx="0.430476" transform="matrix(-1 -1.74846e-07 -1.74846e-07 1 178.236 101.326)" fill="#A6A6A6" fill-opacity="0.5"/>
<rect width="2.15055" height="0.460455" rx="0.230228" transform="matrix(-1 -1.74846e-07 -1.74846e-07 1 177.776 103.782)" fill="#A6A6A6" fill-opacity="0.5"/>
<rect width="3.07221" height="2.30227" rx="0.430476" transform="matrix(-1 -1.74846e-07 -1.74846e-07 1 183.891 101.326)" fill="#A6A6A6" fill-opacity="0.5"/>
<rect width="2.15055" height="0.460455" rx="0.230228" transform="matrix(-1 -1.74846e-07 -1.74846e-07 1 183.431 103.782)" fill="#A6A6A6" fill-opacity="0.5"/>
<rect width="3.07221" height="2.30227" rx="0.430476" transform="matrix(-1 -1.74846e-07 -1.74846e-07 1 189.546 101.326)" fill="#A6A6A6" fill-opacity="0.5"/>
<rect width="2.15055" height="0.460455" rx="0.230228" transform="matrix(-1 -1.74846e-07 -1.74846e-07 1 189.086 103.782)" fill="#A6A6A6" fill-opacity="0.5"/>
<rect width="3.07221" height="2.30227" rx="0.430476" transform="matrix(-1 -1.74846e-07 -1.74846e-07 1 195.202 101.326)" fill="#61C3F2"/>
<rect width="2.15055" height="0.460455" rx="0.230228" transform="matrix(-1 -1.74846e-07 -1.74846e-07 1 194.741 103.782)" fill="#61C3F2"/>
<rect width="3.07221" height="2.30227" rx="0.430476" transform="matrix(-1 -1.74846e-07 -1.74846e-07 1 200.857 101.326)" fill="#61C3F2"/>
<rect width="2.15055" height="0.460455" rx="0.230228" transform="matrix(-1 -1.74846e-07 -1.74846e-07 1 200.396 103.782)" fill="#61C3F2"/>
<rect width="3.07221" height="2.30227" rx="0.430476" transform="matrix(-1 -1.74846e-07 -1.74846e-07 1 59.4799 108.117)" fill="#A6A6A6" fill-opacity="0.5"/>
<rect width="2.15055" height="0.460455" rx="0.230228" transform="matrix(-1 -1.74846e-07 -1.74846e-07 1 59.019 110.572)" fill="#A6A6A6" fill-opacity="0.5"/>
<rect width="3.07221" height="2.30227" rx="0.430476" transform="matrix(-1 -1.74846e-07 -1.74846e-07 1 65.1349 108.117)" fill="#A6A6A6" fill-opacity="0.5"/>
<rect width="2.15055" height="0.460455" rx="0.230228" transform="matrix(-1 -1.74846e-07 -1.74846e-07 1 64.6741 110.572)" fill="#A6A6A6" fill-opacity="0.5"/>
<rect width="3.07221" height="2.30227" rx="0.430476" transform="matrix(-1 -1.74846e-07 -1.74846e-07 1 70.79 108.117)" fill="#61C3F2"/>
<rect width="2.15055" height="0.460455" rx="0.230228" transform="matrix(-1 -1.74846e-07 -1.74846e-07 1 70.3292 110.572)" fill="#61C3F2"/>
<rect width="3.07221" height="2.30227" rx="0.430476" transform="matrix(-1 -1.74846e-07 -1.74846e-07 1 76.4451 108.117)" fill="#61C3F2"/>
<rect width="2.15055" height="0.460455" rx="0.230228" transform="matrix(-1 -1.74846e-07 -1.74846e-07 1 75.9843 110.572)" fill="#61C3F2"/>
<rect width="3.07221" height="2.30227" rx="0.430476" transform="matrix(-1 -1.74846e-07 -1.74846e-07 1 82.1002 108.117)" fill="#A6A6A6" fill-opacity="0.5"/>
<rect width="2.15055" height="0.460455" rx="0.230228" transform="matrix(-1 -1.74846e-07 -1.74846e-07 1 81.6393 110.572)" fill="#A6A6A6" fill-opacity="0.5"/>
<rect width="3.07221" height="2.30227" rx="0.430476" transform="matrix(-1 -1.74846e-07 -1.74846e-07 1 93.4103 108.117)" fill="#A6A6A6" fill-opacity="0.5"/>
<rect width="2.15055" height="0.460455" rx="0.230228" transform="matrix(-1 -1.74846e-07 -1.74846e-07 1 92.9495 110.572)" fill="#A6A6A6" fill-opacity="0.5"/>
<rect width="3.07221" height="2.30227" rx="0.430476" transform="matrix(-1 -1.74846e-07 -1.74846e-07 1 99.0654 108.117)" fill="#A6A6A6" fill-opacity="0.5"/>
<rect width="2.15055" height="0.460455" rx="0.230228" transform="matrix(-1 -1.74846e-07 -1.74846e-07 1 98.6045 110.572)" fill="#A6A6A6" fill-opacity="0.5"/>
<rect width="3.07221" height="2.30227" rx="0.430476" transform="matrix(-1 -1.74846e-07 -1.74846e-07 1 104.72 108.117)" fill="#61C3F2"/>
<rect width="2.15055" height="0.460455" rx="0.230228" transform="matrix(-1 -1.74846e-07 -1.74846e-07 1 104.26 110.572)" fill="#61C3F2"/>
<rect width="3.07221" height="2.30227" rx="0.430476" transform="matrix(-1 -1.74846e-07 -1.74846e-07 1 110.375 108.117)" fill="#61C3F2"/>
<rect width="2.15055" height="0.460455" rx="0.230228" transform="matrix(-1 -1.74846e-07 -1.74846e-07 1 109.915 110.572)" fill="#61C3F2"/>
<rect width="3.07221" height="2.30227" rx="0.430476" transform="matrix(-1 -1.74846e-07 -1.74846e-07 1 116.031 108.117)" fill="#A6A6A6" fill-opacity="0.5"/>
<rect width="2.15055" height="0.460455" rx="0.230228" transform="matrix(-1 -1.74846e-07 -1.74846e-07 1 115.57 110.572)" fill="#A6A6A6" fill-opacity="0.5"/>
<rect width="3.07221" height="2.30227" rx="0.430476" transform="matrix(-1 -1.74846e-07 -1.74846e-07 1 121.686 108.117)" fill="#A6A6A6" fill-opacity="0.5"/>
<rect width="2.15055" height="0.460455" rx="0.230228" transform="matrix(-1 -1.74846e-07 -1.74846e-07 1 121.225 110.572)" fill="#A6A6A6" fill-opacity="0.5"/>
<rect width="3.07221" height="2.30227" rx="0.430476" transform="matrix(-1 -1.74846e-07 -1.74846e-07 1 127.341 108.117)" fill="#61C3F2"/>
<rect width="2.15055" height="0.460455" rx="0.230228" transform="matrix(-1 -1.74846e-07 -1.74846e-07 1 126.88 110.572)" fill="#61C3F2"/>
<rect width="3.07221" height="2.30227" rx="0.430476" transform="matrix(-1 -1.74846e-07 -1.74846e-07 1 132.996 108.117)" fill="#61C3F2"/>
<rect width="2.15055" height="0.460455" rx="0.230228" transform="matrix(-1 -1.74846e-07 -1.74846e-07 1 132.535 110.572)" fill="#61C3F2"/>
<rect width="3.07221" height="2.30227" rx="0.430476" transform="matrix(-1 -1.74846e-07 -1.74846e-07 1 138.651 108.117)" fill="#A6A6A6" fill-opacity="0.5"/>
<rect width="2.15055" height="0.460455" rx="0.230228" transform="matrix(-1 -1.74846e-07 -1.74846e-07 1 138.19 110.572)" fill="#A6A6A6" fill-opacity="0.5"/>
<rect width="3.07221" height="2.30227" rx="0.430476" transform="matrix(-1 -1.74846e-07 -1.74846e-07 1 144.306 108.117)" fill="#A6A6A6" fill-opacity="0.5"/>
<rect width="2.15055" height="0.460455" rx="0.230228" transform="matrix(-1 -1.74846e-07 -1.74846e-07 1 143.845 110.572)" fill="#A6A6A6" fill-opacity="0.5"/>
<rect width="3.07221" height="2.30227" rx="0.430476" transform="matrix(-1 -1.74846e-07 -1.74846e-07 1 149.961 108.117)" fill="#61C3F2"/>
<rect width="2.15055" height="0.460455" rx="0.230228" transform="matrix(-1 -1.74846e-07 -1.74846e-07 1 149.5 110.572)" fill="#61C3F2"/>
<rect width="3.07221" height="2.30227" rx="0.430476" transform="matrix(-1 -1.74846e-07 -1.74846e-07 1 155.616 108.117)" fill="#61C3F2"/>
<rect width="2.15055" height="0.460455" rx="0.230228" transform="matrix(-1 -1.74846e-07 -1.74846e-07 1 155.155 110.572)" fill="#61C3F2"/>
<rect width="3.07221" height="2.30227" rx="0.430476" transform="matrix(-1 -1.74846e-07 -1.74846e-07 1 161.271 108.117)" fill="#A6A6A6" fill-opacity="0.5"/>
<rect width="2.15055" height="0.460455" rx="0.230228" transform="matrix(-1 -1.74846e-07 -1.74846e-07 1 160.81 110.572)" fill="#A6A6A6" fill-opacity="0.5"/>
<rect width="3.07221" height="2.30227" rx="0.430476" transform="matrix(-1 -1.74846e-07 -1.74846e-07 1 166.926 108.117)" fill="#A6A6A6" fill-opacity="0.5"/>
<rect width="2.15055" height="0.460455" rx="0.230228" transform="matrix(-1 -1.74846e-07 -1.74846e-07 1 166.465 110.572)" fill="#A6A6A6" fill-opacity="0.5"/>
<rect width="3.07221" height="2.30227" rx="0.430476" transform="matrix(-1 -1.74846e-07 -1.74846e-07 1 178.236 108.117)" fill="#A6A6A6" fill-opacity="0.5"/>
<rect width="2.15055" height="0.460455" rx="0.230228" transform="matrix(-1 -1.74846e-07 -1.74846e-07 1 177.776 110.572)" fill="#A6A6A6" fill-opacity="0.5"/>
<rect width="3.07221" height="2.30227" rx="0.430476" transform="matrix(-1 -1.74846e-07 -1.74846e-07 1 183.891 108.117)" fill="#61C3F2"/>
<rect width="2.15055" height="0.460455" rx="0.230228" transform="matrix(-1 -1.74846e-07 -1.74846e-07 1 183.431 110.572)" fill="#61C3F2"/>
<rect width="3.07221" height="2.30227" rx="0.430476" transform="matrix(-1 -1.74846e-07 -1.74846e-07 1 189.546 108.117)" fill="#61C3F2"/>
<rect width="2.15055" height="0.460455" rx="0.230228" transform="matrix(-1 -1.74846e-07 -1.74846e-07 1 189.086 110.572)" fill="#61C3F2"/>
<rect width="3.07221" height="2.30227" rx="0.430476" transform="matrix(-1 -1.74846e-07 -1.74846e-07 1 195.202 108.117)" fill="#A6A6A6" fill-opacity="0.5"/>
<rect width="2.15055" height="0.460455" rx="0.230228" transform="matrix(-1 -1.74846e-07 -1.74846e-07 1 194.741 110.572)" fill="#A6A6A6" fill-opacity="0.5"/>
<rect width="3.07221" height="2.30227" rx="0.430476" transform="matrix(-1 -1.74846e-07 -1.74846e-07 1 200.857 108.117)" fill="#A6A6A6" fill-opacity="0.5"/>
<rect width="2.15055" height="0.460455" rx="0.230228" transform="matrix(-1 -1.74846e-07 -1.74846e-07 1 200.396 110.572)" fill="#A6A6A6" fill-opacity="0.5"/>
<rect width="3.07221" height="2.30227" rx="0.430476" transform="matrix(-1 -1.74846e-07 -1.74846e-07 1 59.4799 114.907)" fill="#61C3F2"/>
<rect width="2.15055" height="0.460455" rx="0.230228" transform="matrix(-1 -1.74846e-07 -1.74846e-07 1 59.019 117.363)" fill="#61C3F2"/>
<rect width="3.07221" height="2.30227" rx="0.430476" transform="matrix(-1 -1.74846e-07 -1.74846e-07 1 65.1349 114.907)" fill="#61C3F2"/>
<rect width="2.15055" height="0.460455" rx="0.230228" transform="matrix(-1 -1.74846e-07 -1.74846e-07 1 64.6741 117.363)" fill="#61C3F2"/>
<rect width="3.07221" height="2.30227" rx="0.430476" transform="matrix(-1 -1.74846e-07 -1.74846e-07 1 70.79 114.907)" fill="#A6A6A6" fill-opacity="0.5"/>
<rect width="2.15055" height="0.460455" rx="0.230228" transform="matrix(-1 -1.74846e-07 -1.74846e-07 1 70.3292 117.363)" fill="#A6A6A6" fill-opacity="0.5"/>
<rect width="3.07221" height="2.30227" rx="0.430476" transform="matrix(-1 -1.74846e-07 -1.74846e-07 1 76.4451 114.907)" fill="#A6A6A6" fill-opacity="0.5"/>
<rect width="2.15055" height="0.460455" rx="0.230228" transform="matrix(-1 -1.74846e-07 -1.74846e-07 1 75.9843 117.363)" fill="#A6A6A6" fill-opacity="0.5"/>
<rect width="3.07221" height="2.30227" rx="0.430476" transform="matrix(-1 -1.74846e-07 -1.74846e-07 1 82.1002 114.907)" fill="#A6A6A6" fill-opacity="0.5"/>
<rect width="2.15055" height="0.460455" rx="0.230228" transform="matrix(-1 -1.74846e-07 -1.74846e-07 1 81.6393 117.363)" fill="#A6A6A6" fill-opacity="0.5"/>
<rect width="3.07221" height="2.30227" rx="0.430476" transform="matrix(-1 -1.74846e-07 -1.74846e-07 1 93.4103 114.907)" fill="#61C3F2"/>
<rect width="2.15055" height="0.460455" rx="0.230228" transform="matrix(-1 -1.74846e-07 -1.74846e-07 1 92.9495 117.363)" fill="#61C3F2"/>
<rect width="3.07221" height="2.30227" rx="0.430476" transform="matrix(-1 -1.74846e-07 -1.74846e-07 1 99.0654 114.907)" fill="#61C3F2"/>
<rect width="2.15055" height="0.460455" rx="0.230228" transform="matrix(-1 -1.74846e-07 -1.74846e-07 1 98.6045 117.363)" fill="#61C3F2"/>
<rect width="3.07221" height="2.30227" rx="0.430476" transform="matrix(-1 -1.74846e-07 -1.74846e-07 1 104.72 114.907)" fill="#A6A6A6" fill-opacity="0.5"/>
<rect width="2.15055" height="0.460455" rx="0.230228" transform="matrix(-1 -1.74846e-07 -1.74846e-07 1 104.26 117.363)" fill="#A6A6A6" fill-opacity="0.5"/>
<rect width="3.07221" height="2.30227" rx="0.430476" transform="matrix(-1 -1.74846e-07 -1.74846e-07 1 110.375 114.907)" fill="#A6A6A6" fill-opacity="0.5"/>
<rect width="2.15055" height="0.460455" rx="0.230228" transform="matrix(-1 -1.74846e-07 -1.74846e-07 1 109.915 117.363)" fill="#A6A6A6" fill-opacity="0.5"/>
<rect width="3.07221" height="2.30227" rx="0.430476" transform="matrix(-1 -1.74846e-07 -1.74846e-07 1 116.031 114.907)" fill="#61C3F2"/>
<rect width="2.15055" height="0.460455" rx="0.230228" transform="matrix(-1 -1.74846e-07 -1.74846e-07 1 115.57 117.363)" fill="#61C3F2"/>
<rect width="3.07221" height="2.30227" rx="0.430476" transform="matrix(-1 -1.74846e-07 -1.74846e-07 1 121.686 114.907)" fill="#61C3F2"/>
<rect width="2.15055" height="0.460455" rx="0.230228" transform="matrix(-1 -1.74846e-07 -1.74846e-07 1 121.225 117.363)" fill="#61C3F2"/>
<rect width="3.07221" height="2.30227" rx="0.430476" transform="matrix(-1 -1.74846e-07 -1.74846e-07 1 127.341 114.907)" fill="#A6A6A6" fill-opacity="0.5"/>
<rect width="2.15055" height="0.460455" rx="0.230228" transform="matrix(-1 -1.74846e-07 -1.74846e-07 1 126.88 117.363)" fill="#A6A6A6" fill-opacity="0.5"/>
<rect width="3.07221" height="2.30227" rx="0.430476" transform="matrix(-1 -1.74846e-07 -1.74846e-07 1 132.996 114.907)" fill="#A6A6A6" fill-opacity="0.5"/>
<rect width="2.15055" height="0.460455" rx="0.230228" transform="matrix(-1 -1.74846e-07 -1.74846e-07 1 132.535 117.363)" fill="#A6A6A6" fill-opacity="0.5"/>
<rect width="3.07221" height="2.30227" rx="0.430476" transform="matrix(-1 -1.74846e-07 -1.74846e-07 1 138.651 114.907)" fill="#61C3F2"/>
<rect width="2.15055" height="0.460455" rx="0.230228" transform="matrix(-1 -1.74846e-07 -1.74846e-07 1 138.19 117.363)" fill="#61C3F2"/>
<rect width="3.07221" height="2.30227" rx="0.430476" transform="matrix(-1 -1.74846e-07 -1.74846e-07 1 144.306 114.907)" fill="#61C3F2"/>
<rect width="2.15055" height="0.460455" rx="0.230228" transform="matrix(-1 -1.74846e-07 -1.74846e-07 1 143.845 117.363)" fill="#61C3F2"/>
<rect width="3.07221" height="2.30227" rx="0.430476" transform="matrix(-1 -1.74846e-07 -1.74846e-07 1 149.961 114.907)" fill="#A6A6A6" fill-opacity="0.5"/>
<rect width="2.15055" height="0.460455" rx="0.230228" transform="matrix(-1 -1.74846e-07 -1.74846e-07 1 149.5 117.363)" fill="#A6A6A6" fill-opacity="0.5"/>
<rect width="3.07221" height="2.30227" rx="0.430476" transform="matrix(-1 -1.74846e-07 -1.74846e-07 1 155.616 114.907)" fill="#A6A6A6" fill-opacity="0.5"/>
<rect width="2.15055" height="0.460455" rx="0.230228" transform="matrix(-1 -1.74846e-07 -1.74846e-07 1 155.155 117.363)" fill="#A6A6A6" fill-opacity="0.5"/>
<rect width="3.07221" height="2.30227" rx="0.430476" transform="matrix(-1 -1.74846e-07 -1.74846e-07 1 161.271 114.907)" fill="#61C3F2"/>
<rect width="2.15055" height="0.460455" rx="0.230228" transform="matrix(-1 -1.74846e-07 -1.74846e-07 1 160.81 117.363)" fill="#61C3F2"/>
<rect width="3.07221" height="2.30227" rx="0.430476" transform="matrix(-1 -1.74846e-07 -1.74846e-07 1 166.926 114.907)" fill="#61C3F2"/>
<rect width="2.15055" height="0.460455" rx="0.230228" transform="matrix(-1 -1.74846e-07 -1.74846e-07 1 166.465 117.363)" fill="#61C3F2"/>
<rect width="3.07221" height="2.30227" rx="0.430476" transform="matrix(-1 -1.74846e-07 -1.74846e-07 1 178.236 114.907)" fill="#A6A6A6" fill-opacity="0.5"/>
<rect width="2.15055" height="0.460455" rx="0.230228" transform="matrix(-1 -1.74846e-07 -1.74846e-07 1 177.776 117.363)" fill="#A6A6A6" fill-opacity="0.5"/>
<rect width="3.07221" height="2.30227" rx="0.430476" transform="matrix(-1 -1.74846e-07 -1.74846e-07 1 183.891 114.907)" fill="#A6A6A6" fill-opacity="0.5"/>
<rect width="2.15055" height="0.460455" rx="0.230228" transform="matrix(-1 -1.74846e-07 -1.74846e-07 1 183.431 117.363)" fill="#A6A6A6" fill-opacity="0.5"/>
<rect width="3.07221" height="2.30227" rx="0.430476" transform="matrix(-1 -1.74846e-07 -1.74846e-07 1 189.546 114.907)" fill="#A6A6A6" fill-opacity="0.5"/>
<rect width="2.15055" height="0.460455" rx="0.230228" transform="matrix(-1 -1.74846e-07 -1.74846e-07 1 189.086 117.363)" fill="#A6A6A6" fill-opacity="0.5"/>
<rect width="3.07221" height="2.30227" rx="0.430476" transform="matrix(-1 -1.74846e-07 -1.74846e-07 1 195.202 114.907)" fill="#61C3F2"/>
<rect width="2.15055" height="0.460455" rx="0.230228" transform="matrix(-1 -1.74846e-07 -1.74846e-07 1 194.741 117.363)" fill="#61C3F2"/>
<rect width="3.07221" height="2.30227" rx="0.430476" transform="matrix(-1 -1.74846e-07 -1.74846e-07 1 200.857 114.907)" fill="#61C3F2"/>
<rect width="2.15055" height="0.460455" rx="0.230228" transform="matrix(-1 -1.74846e-07 -1.74846e-07 1 200.396 117.363)" fill="#61C3F2"/>
<rect width="3.07221" height="2.30227" rx="0.430476" transform="matrix(-1 -1.74846e-07 -1.74846e-07 1 65.1349 121.698)" fill="#A6A6A6" fill-opacity="0.5"/>
<rect width="2.15055" height="0.460455" rx="0.230228" transform="matrix(-1 -1.74846e-07 -1.74846e-07 1 64.6741 124.153)" fill="#A6A6A6" fill-opacity="0.5"/>
<rect width="3.07221" height="2.30227" rx="0.430476" transform="matrix(-1 -1.74846e-07 -1.74846e-07 1 70.79 121.698)" fill="#4FD2CF"/>
<rect width="2.15055" height="0.460455" rx="0.230228" transform="matrix(-1 -1.74846e-07 -1.74846e-07 1 70.3292 124.153)" fill="#4FD2CF"/>
<rect width="3.07221" height="2.30227" rx="0.430476" transform="matrix(-1 -1.74846e-07 -1.74846e-07 1 76.4451 121.698)" fill="#4FD2CF"/>
<rect width="2.15055" height="0.460455" rx="0.230228" transform="matrix(-1 -1.74846e-07 -1.74846e-07 1 75.9843 124.153)" fill="#4FD2CF"/>
<rect width="3.07221" height="2.30227" rx="0.430476" transform="matrix(-1 -1.74846e-07 -1.74846e-07 1 99.0654 121.698)" fill="#61C3F2"/>
<rect width="2.15055" height="0.460455" rx="0.230228" transform="matrix(-1 -1.74846e-07 -1.74846e-07 1 98.6045 124.153)" fill="#61C3F2"/>
<rect width="3.07221" height="2.30227" rx="0.430476" transform="matrix(-1 -1.74846e-07 -1.74846e-07 1 104.72 121.698)" fill="#A6A6A6" fill-opacity="0.5"/>
<rect width="2.15055" height="0.460455" rx="0.230228" transform="matrix(-1 -1.74846e-07 -1.74846e-07 1 104.26 124.153)" fill="#A6A6A6" fill-opacity="0.5"/>
<rect width="3.07221" height="2.30227" rx="0.430476" transform="matrix(-1 -1.74846e-07 -1.74846e-07 1 110.375 121.698)" fill="#A6A6A6" fill-opacity="0.5"/>
<rect width="2.15055" height="0.460455" rx="0.230228" transform="matrix(-1 -1.74846e-07 -1.74846e-07 1 109.915 124.153)" fill="#A6A6A6" fill-opacity="0.5"/>
<rect width="3.07221" height="2.30227" rx="0.430476" transform="matrix(-1 -1.74846e-07 -1.74846e-07 1 116.031 121.698)" fill="#61C3F2"/>
<rect width="2.15055" height="0.460455" rx="0.230228" transform="matrix(-1 -1.74846e-07 -1.74846e-07 1 115.57 124.153)" fill="#61C3F2"/>
<rect width="3.07221" height="2.30227" rx="0.430476" transform="matrix(-1 -1.74846e-07 -1.74846e-07 1 144.306 121.698)" fill="#61C3F2"/>
<rect width="2.15055" height="0.460455" rx="0.230228" transform="matrix(-1 -1.74846e-07 -1.74846e-07 1 143.845 124.153)" fill="#61C3F2"/>
<rect width="3.07221" height="2.30227" rx="0.430476" transform="matrix(-1 -1.74846e-07 -1.74846e-07 1 149.961 121.698)" fill="#A6A6A6" fill-opacity="0.5"/>
<rect width="2.15055" height="0.460455" rx="0.230228" transform="matrix(-1 -1.74846e-07 -1.74846e-07 1 149.5 124.153)" fill="#A6A6A6" fill-opacity="0.5"/>
<rect width="3.07221" height="2.30227" rx="0.430476" transform="matrix(-1 -1.74846e-07 -1.74846e-07 1 155.616 121.698)" fill="#A6A6A6" fill-opacity="0.5"/>
<rect width="2.15055" height="0.460455" rx="0.230228" transform="matrix(-1 -1.74846e-07 -1.74846e-07 1 155.155 124.153)" fill="#A6A6A6" fill-opacity="0.5"/>
<rect width="3.07221" height="2.30227" rx="0.430476" transform="matrix(-1 -1.74846e-07 -1.74846e-07 1 161.271 121.698)" fill="#61C3F2"/>
<rect width="2.15055" height="0.460455" rx="0.230228" transform="matrix(-1 -1.74846e-07 -1.74846e-07 1 160.81 124.153)" fill="#61C3F2"/>
<rect width="3.07221" height="2.30227" rx="0.430476" transform="matrix(-1 -1.74846e-07 -1.74846e-07 1 183.891 121.698)" fill="#4FD2CF"/>
<rect width="2.15055" height="0.460455" rx="0.230228" transform="matrix(-1 -1.74846e-07 -1.74846e-07 1 183.431 124.153)" fill="#4FD2CF"/>
<rect width="3.07221" height="2.30227" rx="0.430476" transform="matrix(-1 -1.74846e-07 -1.74846e-07 1 189.546 121.698)" fill="#4FD2CF"/>
<rect width="2.15055" height="0.460455" rx="0.230228" transform="matrix(-1 -1.74846e-07 -1.74846e-07 1 189.086 124.153)" fill="#4FD2CF"/>
<rect width="3.07221" height="2.30227" rx="0.430476" transform="matrix(-1 -1.74846e-07 -1.74846e-07 1 195.202 121.698)" fill="#A6A6A6" fill-opacity="0.5"/>
<rect width="2.15055" height="0.460455" rx="0.230228" transform="matrix(-1 -1.74846e-07 -1.74846e-07 1 194.741 124.153)" fill="#A6A6A6" fill-opacity="0.5"/>
<mask id="mask0_13619_3830" style="mask-type:alpha" maskUnits="userSpaceOnUse" x="56" y="19" width="145" height="17">
<rect x="56.5292" y="19.0001" width="144.255" height="16.2075" fill="#C4C4C4"/>
</mask>
<g mask="url(#mask0_13619_3830)">
<path d="M242.939 61.0382C242.939 66.6429 239.759 71.9969 233.975 76.8805C228.191 81.7637 219.816 86.1662 209.457 89.8655C188.74 97.2639 160.113 101.842 128.488 101.842C96.8622 101.842 68.2352 97.2639 47.5185 89.8655C37.1597 86.1662 28.7843 81.7637 23.0008 76.8805C17.2167 71.9969 14.0363 66.6429 14.0363 61.0382C14.0363 55.4335 17.2167 50.0796 23.0008 45.1959C28.7843 40.3127 37.1597 35.9103 47.5185 32.2109C68.2352 24.8126 96.8622 20.2346 128.488 20.2346C160.113 20.2346 188.74 24.8126 209.457 32.2109C219.816 35.9103 228.191 40.3127 233.975 45.1959C239.759 50.0796 242.939 55.4335 242.939 61.0382Z" fill="url(#paint0_linear_13619_3830)" fill-opacity="0.3" stroke="#61C3F2" stroke-width="0.215238"/>
</g>
<defs>
<filter id="filter0_d_13619_3830" x="0" y="0" width="257" height="153" filterUnits="userSpaceOnUse" color-interpolation-filters="sRGB">
<feFlood flood-opacity="0" result="BackgroundImageFix"/>
<feColorMatrix in="SourceAlpha" type="matrix" values="0 0 0 0 0 0 0 0 0 0 0 0 0 0 0 0 0 0 127 0" result="hardAlpha"/>
<feOffset dy="1"/>
<feGaussianBlur stdDeviation="2"/>
<feComposite in2="hardAlpha" operator="out"/>
<feColorMatrix type="matrix" values="0 0 0 0 0 0 0 0 0 0 0 0 0 0 0 0 0 0 0.25 0"/>
<feBlend mode="normal" in2="BackgroundImageFix" result="effect1_dropShadow_13619_3830"/>
<feBlend mode="normal" in="SourceGraphic" in2="effect1_dropShadow_13619_3830" result="shape"/>
</filter>
<linearGradient id="paint0_linear_13619_3830" x1="128.488" y1="20.1269" x2="128.488" y2="31.5828" gradientUnits="userSpaceOnUse">
<stop stop-color="#61C3F2" stop-opacity="0.26"/>
<stop offset="1" stop-color="#61C3F2" stop-opacity="0"/>
</linearGradient>
</defs>
</svg>
