<svg width="329" height="37" viewBox="0 0 329 37" fill="none" xmlns="http://www.w3.org/2000/svg">
<mask id="mask0_13603_395" style="mask-type:alpha" maskUnits="userSpaceOnUse" x="0" y="0" width="329" height="37">
<rect x="0.601929" y="0.0487976" width="327.844" height="36.8342" fill="#C4C4C4"/>
</mask>
<g mask="url(#mask0_13603_395)">
<path d="M424.249 95.5874C424.249 108.325 417.021 120.493 403.876 131.592C390.732 142.689 371.698 152.695 348.156 161.102C301.073 177.916 236.014 188.32 164.14 188.32C92.2651 188.32 27.2056 177.916 -19.8765 161.102C-43.4187 152.695 -62.453 142.689 -75.5971 131.592C-88.7424 120.493 -95.9703 108.325 -95.9703 95.5874C-95.9703 82.8498 -88.7424 70.682 -75.5971 59.5832C-62.453 48.4853 -43.4187 38.48 -19.8765 30.0726C27.2056 13.2587 92.2651 2.85439 164.14 2.85439C236.014 2.85439 301.073 13.2587 348.156 30.0726C371.698 38.48 390.732 48.4853 403.876 59.5832C417.021 70.682 424.249 82.8498 424.249 95.5874Z" fill="url(#paint0_linear_13603_395)" fill-opacity="0.3" stroke="#61C3F2" stroke-width="0.489163"/>
</g>
<defs>
<linearGradient id="paint0_linear_13603_395" x1="164.14" y1="2.60981" x2="164.14" y2="28.6451" gradientUnits="userSpaceOnUse">
<stop stop-color="#61C3F2" stop-opacity="0.26"/>
<stop offset="1" stop-color="#61C3F2" stop-opacity="0"/>
</linearGradient>
</defs>
</svg>
